opsz8_wght1000_wdth50.ufo
<glyph name="zero" format="2">
	<unicode hex="0030"/>
	<advance width="1143"/>
	<outline>
		<contour>
			<point x="64.0642690507" y="892.4691162109" type="qcurve" smooth="yes"/>
			<point x="147.0895376054" y="1230.7505493164"/>
			<point x="457.3923339844" y="1566.8852539062"/>
			<point x="726.6232910156" y="1538.9904785156" type="qcurve" smooth="yes"/>
			<point x="908.5119628906" y="1512.095703125"/>
			<point x="1116.6257924882" y="1019.6125488281"/>
			<point x="1052.0231313554" y="696.5213623047" type="qcurve" smooth="yes"/>
			<point x="984.8400258866" y="356.0294799805"/>
			<point x="635.1673583984" y="-35.7895507812"/>
			<point x="361.8355712891" y="-10" type="qcurve" smooth="yes"/>
			<point x="169.7125244141" y="16.7895507812"/>
			<point x="-23.5910043868" y="524.1681518555"/>
		</contour>
		<contour>
			<point x="232.3032226562" y="811.78515625" type="qcurve" smooth="yes"/>
			<point x="137.7905273438" y="484.7805175781"/>
			<point x="234.7623291016" y="113.7683105469"/>
			<point x="380.6973876953" y="102.7683105469" type="qcurve" smooth="yes"/>
			<point x="540.7659912109" y="90.7683105469"/>
			<point x="784.9514160156" y="418.5764160156"/>
			<point x="871.8403320312" y="720.1527099609" type="qcurve" smooth="yes"/>
			<point x="953.9698486328" y="992.1583251953"/>
			<point x="855.7922363281" y="1407.0959472656"/>
			<point x="715.390625" y="1415.0959472656" type="qcurve" smooth="yes"/>
			<point x="555.4553222656" y="1423.0959472656"/>
			<point x="317.6730957031" y="1099.3614501953"/>
		</contour>
	</outline>
</glyph>
<glyph name="one" format="2">
	<unicode hex="0031"/>
	<advance width="739"/>
	<outline>
		<contour>
			<point x="265.4155273438" y="45" type="line"/>
			<point x="289.4155273438" y="107"/>
			<point x="324.8101196289" y="215.7365722656"/>
			<point x="348.8627319336" y="324.2623291016" type="qcurve" smooth="yes"/>
			<point x="513.1773071289" y="988.2286987305" type="line"/>
			<point x="562.9744873047" y="1268.8793945312" type="line"/>
			<point x="80.9275512695" y="974.8715820312" type="line"/>
			<point x="32.7610473633" y="1139.4592285156" type="line"/>
			<point x="544.2842407227" y="1560.7800292969" type="line"/>
			<point x="758.4006958008" y="1435.4111328125" type="line"/>
			<point x="744.9697875977" y="1408.1826171875"/>
			<point x="753.3307495117" y="1353.9116210938"/>
			<point x="747.1784057617" y="1338.9975585938" type="qcurve" smooth="yes"/>
			<point x="600.2323608398" y="732.4165039062" type="line"/>
			<point x="493.4172363281" y="151" type="line"/>
			<point x="425.6723632812" y="-33" type="line"/>
		</contour>
	</outline>
</glyph>
<glyph name="two" format="2">
	<unicode hex="0032"/>
	<advance width="995"/>
	<outline>
		<contour>
			<point x="-188.283203125" y="-7.3686523438" type="qcurve"/>
			<point x="-248.2196655273" y="93.7708129883" type="line"/>
			<point x="-61.7717285156" y="200.7700805664" type="line" smooth="yes"/>
			<point x="364.3045043945" y="413.6473388672"/>
			<point x="815.8338012695" y="879.0185546875"/>
			<point x="828.1655883789" y="1080.3770751953" type="qcurve" smooth="yes"/>
			<point x="839.3840942383" y="1212.6617431641"/>
			<point x="681.0128173828" y="1331.4344482422"/>
			<point x="545.8342895508" y="1331.4344482422" type="qcurve" smooth="yes"/>
			<point x="394.5856933594" y="1331.4344482422"/>
			<point x="158.1276855469" y="1241.3433227539"/>
			<point x="47.3272094727" y="1171.6267700195" type="qcurve"/>
			<point x="-0.2353515625" y="1254.9947509766" type="line"/>
			<point x="115.1869506836" y="1370.1758422852"/>
			<point x="375.6461181641" y="1556.2535400391"/>
			<point x="589.2456054688" y="1556.2535400391" type="qcurve" smooth="yes"/>
			<point x="784.2327880859" y="1556.2535400391"/>
			<point x="1047.2821044922" y="1360.1494140625"/>
			<point x="1061.4929199219" y="1164.5451049805" type="qcurve" smooth="yes"/>
			<point x="1084.2302246094" y="856.0865478516"/>
			<point x="401.4555053711" y="342.5274047852"/>
			<point x="13.9311523438" y="104.8901367188" type="qcurve"/>
			<point x="18.8909301758" y="93.9303588867" type="line"/>
			<point x="73.5891723633" y="125.8901367188"/>
			<point x="218.8123779297" y="172.8375244141"/>
			<point x="306.2599487305" y="170.9829711914" type="qcurve"/>
			<point x="406.7921142578" y="162.4251098633"/>
			<point x="612.3735351562" y="126.444519043"/>
			<point x="719.3137817383" y="129.741027832" type="qcurve"/>
			<point x="806.3501586914" y="300.8992919922" type="line"/>
			<point x="901.4320068359" y="266.9262695312" type="line"/>
			<point x="803.9957885742" y="-18.6320800781" type="line"/>
			<point x="709.5919799805" y="-11.467590332"/>
			<point x="533.2543334961" y="54.2872924805"/>
			<point x="389.1928710938" y="55.762512207" type="qcurve" smooth="yes"/>
			<point x="235.7712402344" y="55.7362060547"/>
			<point x="-92.5722045898" y="21.2100830078"/>
		</contour>
	</outline>
</glyph>
<glyph name="three" format="2">
	<unicode hex="0033"/>
	<advance width="1039"/>
	<outline>
		<contour>
			<point x="-106.8414306641" y="258.0856933594" type="qcurve"/>
			<point x="-99.8414306641" y="340.0922241211"/>
			<point x="7.6591796875" y="413.3280639648"/>
			<point x="67.7979736328" y="412.3806762695" type="qcurve"/>
			<point x="138.4296875" y="412.2491455078" type="line"/>
			<point x="121.5349121094" y="365.1176147461"/>
			<point x="101.4822998047" y="279.0913085938"/>
			<point x="98.4822998047" y="234.9071655273" type="qcurve" smooth="yes"/>
			<point x="94.4296875" y="161.6181640625"/>
			<point x="208.487121582" y="64.6185302734"/>
			<point x="352.2379150391" y="64.6185302734" type="qcurve" smooth="yes"/>
			<point x="546.0393066406" y="64.6185302734"/>
			<point x="795.6920166016" y="247.8584594727"/>
			<point x="819.7446289062" y="432.9741210938" type="qcurve" smooth="yes"/>
			<point x="845.7446289062" y="618.2087402344"/>
			<point x="628.3775024414" y="754.3197021484"/>
			<point x="391.7373046875" y="764.3986206055" type="qcurve" smooth="yes"/>
			<point x="291.9173583984" y="767.7706298828" type="line"/>
			<point x="324.3508300781" y="874.4390258789" type="line"/>
			<point x="422.4038085938" y="881.4653320312" type="line" smooth="yes"/>
			<point x="633.9608154297" y="894.4390258789"/>
			<point x="864.7431640625" y="1036.089050293"/>
			<point x="878.6905517578" y="1155.354309082" type="qcurve" smooth="yes"/>
			<point x="890.7431640625" y="1261.7078857422"/>
			<point x="771.2091064453" y="1349.2401123047"/>
			<point x="655.783996582" y="1349.2401123047" type="qcurve" smooth="yes"/>
			<point x="487.7250366211" y="1349.2401123047"/>
			<point x="303.1143798828" y="1247.2596435547"/>
			<point x="227.1158447266" y="1193.7712402344" type="qcurve"/>
			<point x="171.3960571289" y="1282.3598632812" type="line"/>
			<point x="214.4606323242" y="1335.5010375977"/>
			<point x="489.0151977539" y="1557.4633178711"/>
			<point x="691.1134643555" y="1558.2272338867" type="qcurve" smooth="yes"/>
			<point x="849.3536376953" y="1558.9911499023"/>
			<point x="1049.0731201172" y="1346.649230957"/>
			<point x="1023.0731201172" y="1206.2290649414" type="qcurve" smooth="yes"/>
			<point x="995.0731201172" y="1056.7825927734"/>
			<point x="828.0927734375" y="887.4417114258"/>
			<point x="674.3894042969" y="853.073425293" type="qcurve"/>
			<point x="671.4420166016" y="845.9682006836" type="line"/>
			<point x="827.5402832031" y="812.5999145508"/>
			<point x="1029.6533203125" y="588.2853393555"/>
			<point x="1002.6533203125" y="411.4442749023" type="qcurve" smooth="yes"/>
			<point x="975.4954833984" y="219.6824951172"/>
			<point x="599.9683837891" y="-33"/>
			<point x="325.5501098633" y="-32" type="qcurve" smooth="yes"/>
			<point x="105.7576904297" y="-31"/>
			<point x="-115.8414306641" y="143.1851806641"/>
		</contour>
	</outline>
</glyph>
<glyph name="four" format="2">
	<unicode hex="0034"/>
	<advance width="1144"/>
	<outline>
		<contour>
			<point x="-98.3427124023" y="442.5233154297" type="line"/>
			<point x="13" y="539" type="line"/>
			<point x="1096.8472900391" y="1596.5695800781" type="line"/>
			<point x="1009.8087158203" y="1521.5695800781" type="line"/>
			<point x="1062.8087158203" y="1426.5695800781" type="line"/>
			<point x="837.7308959961" y="520.9444580078" type="line"/>
			<point x="842.7308959961" y="488.9444580078" type="line"/>
			<point x="788.5208129883" y="257.5516967773" type="line"/>
			<point x="766.0736083984" y="98" type="line"/>
			<point x="716.1121826172" y="-29" type="line"/>
			<point x="543.1121826172" y="46" type="line"/>
			<point x="668.7694702148" y="502.9444580078" type="line"/>
			<point x="676.7694702148" y="530.9444580078" type="line"/>
			<point x="850.1206665039" y="1259.3692626953" type="line"/>
			<point x="168" y="559" type="line"/>
			<point x="66.4644165039" y="559.4178466797" type="line"/>
			<point x="788.4918823242" y="552.1392822266" type="line"/>
			<point x="1116.1669311523" y="563.1392822266" type="line"/>
			<point x="1098.5575561523" y="443.5233154297" type="line"/>
			<point x="767.8825073242" y="433.9281005859" type="line"/>
		</contour>
	</outline>
</glyph>
<glyph name="five" format="2">
	<unicode hex="0035"/>
	<advance width="1008"/>
	<outline>
		<contour>
			<point x="-138.2890014648" y="272.9725952148" type="qcurve" smooth="yes"/>
			<point x="-132.2890014648" y="357.8756713867"/>
			<point x="-9.1166381836" y="450.2514648438"/>
			<point x="50.7109985352" y="442.2974243164" type="qcurve"/>
			<point x="99.6631469727" y="442.192199707" type="line"/>
			<point x="76.6631469727" y="351.8702392578" type="line" smooth="yes"/>
			<point x="36.6631469727" y="207.6790161133"/>
			<point x="173.6192626953" y="76.8538818359"/>
			<point x="319.6040039062" y="76.8538818359" type="qcurve" smooth="yes"/>
			<point x="524.2950439453" y="76.8538818359"/>
			<point x="750.8498535156" y="185.1965942383"/>
			<point x="781.4285888672" y="465.8907470703" type="qcurve" smooth="yes"/>
			<point x="813.9547119141" y="727.4649658203"/>
			<point x="467.4398193359" y="857.5939941406"/>
			<point x="275.4602050781" y="796.778137207" type="qcurve" smooth="yes"/>
			<point x="162.5113525391" y="764.0148925781" type="line"/>
			<point x="106.3167724609" y="855.6254882812" type="line"/>
			<point x="264.4735107422" y="1448.9378662109" type="line"/>
			<point x="347.4208984375" y="1525.9115600586" type="line"/>
			<point x="966.7076416016" y="1525.9115600586" type="line"/>
			<point x="943.3065185547" y="1390.0729370117" type="line"/>
			<point x="357.1794433594" y="1390.0729370117" type="line"/>
			<point x="347.1794433594" y="1378.8887939453" type="line"/>
			<point x="311.5992431641" y="1234.0708618164"/>
			<point x="221.6090698242" y="911.5729370117"/>
			<point x="188.6945800781" y="842.5177612305" type="qcurve"/>
			<point x="572.9495849609" y="1002.7044067383" type="line"/>
			<point x="764.1762695312" y="1066.8626098633"/>
			<point x="992.6843261719" y="788.9689331055"/>
			<point x="975.0003662109" y="547.1278686523" type="qcurve" smooth="yes"/>
			<point x="958.1059570312" y="254.3131103516"/>
			<point x="545.0638427734" y="-29"/>
			<point x="240.701171875" y="-29" type="qcurve" smooth="yes"/>
			<point x="100.2245483398" y="-29"/>
			<point x="-146.2890014648" y="143.7098999023"/>
		</contour>
	</outline>
</glyph>
<glyph name="six" format="2">
	<unicode hex="0036"/>
	<advance width="1032"/>
	<outline>
		<contour>
			<point x="-5.8421630859" y="593.5231933594" type="qcurve" smooth="yes"/>
			<point x="2.841796875" y="980.1790161133"/>
			<point x="624.1895141602" y="1617.806640625"/>
			<point x="1132.4356079102" y="1607.8322753906" type="qcurve"/>
			<point x="1131.9973144531" y="1508.9140014648" type="line"/>
			<point x="664.250793457" y="1432.4080810547"/>
			<point x="166.8846435547" y="932.6591796875"/>
			<point x="96.1700439453" y="402.0179443359" type="qcurve" smooth="yes"/>
			<point x="70.339050293" y="237.0308227539"/>
			<point x="188.0247802734" y="98.0297851562"/>
			<point x="374.6450805664" y="89.0823974609" type="qcurve" smooth="yes"/>
			<point x="527.1796875" y="79.1876220703"/>
			<point x="746.4945068359" y="238.2834472656"/>
			<point x="772.8333740234" y="533.4781494141" type="qcurve" smooth="yes"/>
			<point x="792.9237060547" y="679.0999145508"/>
			<point x="706.3046875" y="796.3946533203"/>
			<point x="603.9875488281" y="806.3420410156" type="qcurve" smooth="yes"/>
			<point x="532.6711425781" y="814.2894287109"/>
			<point x="389.3218994141" y="751.4133300781"/>
			<point x="335.12890625" y="674.1834716797" type="qcurve"/>
			<point x="329.8216552734" y="736.26171875" type="line"/>
			<point x="383.728515625" y="806.9517822266"/>
			<point x="513.6635742188" y="899.1747436523"/>
			<point x="623.9072265625" y="891.227355957" type="qcurve" smooth="yes"/>
			<point x="746.8465576172" y="880.3325805664"/>
			<point x="952.8739013672" y="672.6763916016"/>
			<point x="931.0321044922" y="499.3884887695" type="qcurve" smooth="yes"/>
			<point x="907.1376953125" y="245.7048950195"/>
			<point x="580.251953125" y="-27.9473876953"/>
			<point x="334.9444580078" y="-11" type="qcurve" smooth="yes"/>
			<point x="186.6041259766" y="3.9473876953"/>
			<point x="-12.3156738281" y="330.4457397461"/>
		</contour>
	</outline>
</glyph>
<glyph name="seven" format="2">
	<unicode hex="0037"/>
	<advance width="863"/>
	<outline>
		<contour>
			<point x="-113.4146728516" y="1251.8940429688" type="line"/>
			<point x="-64.6463623047" y="1525.9641723633" type="line"/>
			<point x="927.6610107422" y="1525.9641723633" type="line"/>
			<point x="965.6380615234" y="1417.0740356445" type="line"/>
			<point x="679.776184082" y="1043.1445922852"/>
			<point x="333.9901123047" y="346.200378418"/>
			<point x="193.3489990234" y="43.9846191406" type="qcurve"/>
			<point x="132.6124267578" y="-7.3742675781" type="line"/>
			<point x="17.3616943359" y="-5.9462890625" type="line"/>
			<point x="165.9485473633" y="375.7456054688"/>
			<point x="783.0665893555" y="1219.1694946289"/>
			<point x="866.7307128906" y="1437.080871582" type="qcurve"/>
			<point x="852.1671142578" y="1456.080871582" type="line"/>
			<point x="68.4718017578" y="1456.3213500977" type="line"/>
			<point x="-11.4117431641" y="1252.7484130859" type="line"/>
		</contour>
	</outline>
</glyph>
<glyph name="eight" format="2">
	<unicode hex="0038"/>
	<advance width="1062"/>
	<outline>
		<contour>
			<point x="567.6766967773" y="897.6720581055" type="qcurve"/>
			<point x="645.9374389648" y="875.7143554688" type="line"/>
			<point x="486.6934814453" y="792.7417602539"/>
			<point x="211.6121826172" y="495.0187988281"/>
			<point x="221.059753418" y="342.2263183594" type="qcurve" smooth="yes"/>
			<point x="227.6651611328" y="247.7398071289"/>
			<point x="357.8568725586" y="121.5114746094"/>
			<point x="473.9877319336" y="122.4588623047" type="qcurve" smooth="yes"/>
			<point x="610.2328491211" y="124.3536376953"/>
			<point x="862.4887084961" y="284.9567871094"/>
			<point x="853.0411376953" y="413.3625488281" type="qcurve" smooth="yes"/>
			<point x="843.5935668945" y="559.6593017578"/>
			<point x="648.0379638672" y="725.3909912109"/>
			<point x="491.194152832" y="877.161315918" type="qcurve" smooth="yes"/>
			<point x="386.8765869141" y="986.5524902344"/>
			<point x="219.1002807617" y="1126.3402709961"/>
			<point x="203.1525268555" y="1196.2606811523" type="qcurve" smooth="yes"/>
			<point x="184.0469360352" y="1289.815612793"/>
			<point x="447.7294921875" y="1542.3371582031"/>
			<point x="667.3494262695" y="1544.2319335938" type="qcurve" smooth="yes"/>
			<point x="855.5686645508" y="1546.1267089844"/>
			<point x="1020.3411865234" y="1389.5260620117"/>
			<point x="1038.5850830078" y="1317.9913330078" type="qcurve" smooth="yes"/>
			<point x="1058.3793945312" y="1179.3341064453"/>
			<point x="741.3518676758" y="961.4911499023"/>
			<point x="487.1174926758" y="885.8365478516" type="qcurve"/>
			<point x="402.6361083984" y="913.1201171875" type="line"/>
			<point x="617.6187744141" y="1008.5134887695"/>
			<point x="796.1349487305" y="1218.1637573242"/>
			<point x="781.8084106445" y="1293.0198364258" type="qcurve" smooth="yes"/>
			<point x="769.4029541016" y="1332.3822021484"/>
			<point x="722.4190063477" y="1382.5122070312"/>
			<point x="649.4530639648" y="1382.5122070312" type="qcurve" smooth="yes"/>
			<point x="491.6943969727" y="1381.5648193359"/>
			<point x="334.0977172852" y="1276.8966064453"/>
			<point x="339.782043457" y="1185.5665283203" type="qcurve" smooth="yes"/>
			<point x="346.4137573242" y="1116.1544799805"/>
			<point x="510.6242675781" y="956.0369873047"/>
			<point x="682.3009033203" y="826.6555175781" type="qcurve" smooth="yes"/>
			<point x="826.6977539062" y="705.3223876953"/>
			<point x="988.2678833008" y="498.8259277344"/>
			<point x="1001.4786987305" y="402.1968994141" type="qcurve" smooth="yes"/>
			<point x="1021.3212280273" y="267.5210571289"/>
			<point x="691.2327270508" y="-9.1052246094"/>
			<point x="402.6320800781" y="-11" type="qcurve" smooth="yes"/>
			<point x="217.2055664062" y="-11.9473876953"/>
			<point x="-88.1841430664" y="200.0332641602"/>
			<point x="-104.2634277344" y="339.3825683594" type="qcurve" smooth="yes"/>
			<point x="-122.237487793" y="527.2857055664"/>
			<point x="291.1422119141" y="806.6937255859"/>
		</contour>
	</outline>
</glyph>
<glyph name="nine" format="2">
	<unicode hex="0039"/>
	<advance width="1015"/>
	<outline>
		<contour>
			<point x="-163.8514404297" y="-77" type="qcurve"/>
			<point x="-164.4131469727" y="21.9182739258" type="line"/>
			<point x="295.8068847656" y="97.4241943359"/>
			<point x="788.985168457" y="604.0411376953"/>
			<point x="858.594543457" y="1122.41796875" type="qcurve" smooth="yes"/>
			<point x="883.4255371094" y="1299.0950927734"/>
			<point x="737.9774169922" y="1440.2904663086"/>
			<point x="593.1408691406" y="1449.2378540039" type="qcurve" smooth="yes"/>
			<point x="435.7966918945" y="1459.1326293945"/>
			<point x="224.2826538086" y="1289.2629394531"/>
			<point x="181.2243041992" y="996.9697265625" type="qcurve" smooth="yes"/>
			<point x="153.274230957" y="851.3479614258"/>
			<point x="228.0378417969" y="737.3162841797"/>
			<point x="353.0175170898" y="724.3688964844" type="qcurve" smooth="yes"/>
			<point x="423.3865356445" y="714.4215087891"/>
			<point x="568.6450805664" y="779.7785644531"/>
			<point x="623.799987793" y="856.7679443359" type="qcurve"/>
			<point x="644.5381469727" y="804.9301757812" type="line"/>
			<point x="590.6312866211" y="734.2401123047"/>
			<point x="441.6962280273" y="633.0171508789"/>
			<point x="331.4525756836" y="640.9645385742" type="qcurve" smooth="yes"/>
			<point x="207.5658569336" y="651.8593139648"/>
			<point x="3.1311645508" y="853.7595214844"/>
			<point x="23.0255737305" y="1026.0474243164" type="qcurve" smooth="yes"/>
			<point x="46.8673706055" y="1279.6520996094"/>
			<point x="372.753112793" y="1556.6484985352"/>
			<point x="617.1132202148" y="1538.7011108398" type="qcurve" smooth="yes"/>
			<point x="750.7624511719" y="1523.7537231445"/>
			<point x="967.3207397461" y="1184.3551635742"/>
			<point x="961.8472290039" y="933.5198974609" type="qcurve" smooth="yes"/>
			<point x="954.2158813477" y="547.864074707"/>
			<point x="319.4920654297" y="-87.9743652344"/>
		</contour>
	</outline>
</glyph>
<glyph name="B" format="2">
	<unicode hex="0042"/>
	<advance width="1161"/>
	<outline>
		<contour>
			<point x="-56.3433837891" y="0" type="line"/>
			<point x="-50.3828125" y="100.0029296875" type="line"/>
			<point x="139.9670410156" y="121.0029296875" type="line"/>
			<point x="274.0064697266" y="821" type="line"/>
			<point x="381.0458984375" y="1364.9970703125" type="line"/>
			<point x="173.4664306641" y="1386.9970703125" type="line"/>
			<point x="181.0042724609" y="1500" type="line"/>
			<point x="646.330078125" y="1500" type="line" smooth="yes"/>
			<point x="845.7987060547" y="1500"/>
			<point x="1067.1201171875" y="1295"/>
			<point x="1054.8157958984" y="1131" type="qcurve" smooth="yes"/>
			<point x="1045.7481079102" y="1001"/>
			<point x="903.0589599609" y="860"/>
			<point x="761.1743774414" y="829" type="qcurve"/>
			<point x="762.0551147461" y="822" type="line"/>
			<point x="866.188659668" y="791"/>
			<point x="1019.6350097656" y="580"/>
			<point x="990.4556274414" y="390" type="qcurve" smooth="yes"/>
			<point x="964.2762451172" y="218"/>
			<point x="696.8350219727" y="0"/>
			<point x="410.254699707" y="0" type="qcurve" smooth="yes"/>
		</contour>
		<contour>
			<point x="297.8099365234" y="145.3070678711" type="line"/>
			<point x="337.3800048828" y="126.5678710938" type="line"/>
			<point x="455.490234375" y="126.5678710938" type="line" smooth="yes"/>
			<point x="619.7518920898" y="126.5678710938"/>
			<point x="759.9462280273" y="264.5908203125"/>
			<point x="784.3040161133" y="428.5908203125" type="qcurve" smooth="yes"/>
			<point x="812.6618041992" y="612.5908203125"/>
			<point x="728.9522705078" y="729.7938842773"/>
			<point x="608.1998291016" y="729.7938842773" type="qcurve" smooth="yes"/>
			<point x="422.0390014648" y="729.7938842773" type="line"/>
			<point x="404.0390014648" y="714.7131958008" type="line"/>
		</contour>
		<contour>
			<point x="435.7735595703" y="880.6095581055" type="line"/>
			<point x="446.4133300781" y="855.8084106445" type="line"/>
			<point x="595.7817382812" y="855.8084106445" type="line" smooth="yes"/>
			<point x="733.7727050781" y="855.8084106445"/>
			<point x="867.0502929688" y="1003.2478027344"/>
			<point x="872.8255004883" y="1112.2478027344" type="qcurve" smooth="yes"/>
			<point x="882.5410766602" y="1238.2478027344"/>
			<point x="808.9782714844" y="1364.4508666992"/>
			<point x="676.3450927734" y="1364.4508666992" type="qcurve" smooth="yes"/>
			<point x="560.1889648438" y="1364.4508666992" type="line"/>
			<point x="525.4424438477" y="1346.8110961914" type="line"/>
		</contour>
	</outline>
	<anchor name="bottom" x="630" y="0"/>
	<anchor name="top" x="630" y="1500"/>
</glyph>
<glyph name="C" format="2">
	<unicode hex="0043"/>
	<advance width="1275"/>
	<outline>
		<contour>
			<point x="89.8171526673" y="875" type="qcurve" smooth="yes"/>
			<point x="180.8171526673" y="1246"/>
			<point x="790.597914386" y="1577.1162109375"/>
			<point x="1018.4970843079" y="1534" type="qcurve" smooth="yes"/>
			<point x="1070.3862444641" y="1524.2470703125"/>
			<point x="1184.2565209305" y="1460.8742675781"/>
			<point x="1178.1437279618" y="1449.63671875" type="qcurve"/>
			<point x="1209.4398705399" y="1427.9689941406" type="line"/>
			<point x="1240.4132592118" y="1391.8540039062" type="line"/>
			<point x="1187.8105370438" y="976.9417114258" type="line"/>
			<point x="1080.4991356766" y="976.9417114258" type="line"/>
			<point x="1107.7954003251" y="1305.0344238281" type="line"/>
			<point x="1116.0991112626" y="1328.7192382812"/>
			<point x="1017.2759301102" y="1361.9815673828"/>
			<point x="980.2960717118" y="1364.0739746094" type="qcurve" smooth="yes"/>
			<point x="682.103566829" y="1402.2330932617"/>
			<point x="372.8220354798" y="1094"/>
			<point x="291.8220354798" y="754" type="qcurve" smooth="yes"/>
			<point x="221.6807390931" y="465"/>
			<point x="386.2990624345" y="155.2604980469"/>
			<point x="570.6586205399" y="135.9655761719" type="qcurve" smooth="yes"/>
			<point x="786.819997493" y="114.150390625"/>
			<point x="1017.2125994446" y="201.8286743164"/>
			<point x="1113.0567156556" y="320.6917724609" type="qcurve"/>
			<point x="1165.9790789368" y="285.6917724609" type="line"/>
			<point x="1197.3073870423" y="218" type="line"/>
			<point x="1156.5570580399" y="113.4069824219"/>
			<point x="847.7267357743" y="-55.9658203125"/>
			<point x="591.5031878235" y="-5" type="qcurve" smooth="yes"/>
			<point x="311.2988421204" y="50.4145507812"/>
			<point x="0.0329729798" y="517"/>
		</contour>
	</outline>
	<anchor name="bottom" x="596" y="0"/>
	<anchor name="top" x="906" y="1500"/>
</glyph>
<glyph name="G" format="2">
	<unicode hex="0047"/>
	<advance width="1387"/>
	<outline>
		<contour>
			<point x="89.6658325195" y="873" type="qcurve" smooth="yes"/>
			<point x="183.6658325195" y="1249"/>
			<point x="676.0161743164" y="1545.9704589844"/>
			<point x="1005.9998168945" y="1534" type="qcurve" smooth="yes"/>
			<point x="1124.7026977539" y="1523.9223632812"/>
			<point x="1270.1539916992" y="1488.0776367188"/>
			<point x="1299.9613647461" y="1465" type="qcurve" smooth="yes"/>
			<point x="1342.629000821" y="1439" type="line"/>
			<point x="1372.2623626374" y="1416" type="line"/>
			<point x="1289.4199554108" y="995.9177856445" type="line"/>
			<point x="1177.8567229889" y="995.9177856445" type="line"/>
			<point x="1209.2918426178" y="1257.9349975586" type="line"/>
			<point x="1185.5576782227" y="1307.0126342773"/>
			<point x="1069.1770019531" y="1364.1679077148"/>
			<point x="977.9245605469" y="1374.9349975586" type="qcurve" smooth="yes"/>
			<point x="747.3209228516" y="1405.5188598633"/>
			<point x="370.7095336914" y="1092"/>
			<point x="301.670715332" y="789" type="qcurve" smooth="yes"/>
			<point x="224.8505859375" y="459"/>
			<point x="449.7632446289" y="165.9918212891"/>
			<point x="638.8441772461" y="151.3877563477" type="qcurve" smooth="yes"/>
			<point x="756.8847045898" y="144.9917602539"/>
			<point x="900.2197265625" y="144.3877563477"/>
			<point x="1004.8813476562" y="145.3877563477" type="qcurve"/>
			<point x="1086.8938933991" y="576.9970703125" type="line"/>
			<point x="934.3548308991" y="599.7170410156" type="line"/>
			<point x="948.2873260163" y="712" type="line"/>
			<point x="1409.3620330475" y="715" type="line"/>
			<point x="1404.4729949616" y="600.9171142578" type="line"/>
			<point x="1284.7915984772" y="579.9970703125" type="line"/>
			<point x="1210.7521697663" y="184" type="line"/>
			<point x="1132.1560668945" y="167" type="line"/>
			<point x="1059.34765625" y="90.1164550781"/>
			<point x="754.494934082" y="-52"/>
			<point x="536.6182250977" y="0" type="qcurve" smooth="yes"/>
			<point x="357.8591918945" y="43.5046386719"/>
			<point x="-4.3341674805" y="499"/>
		</contour>
	</outline>
	<anchor name="bottom" x="667" y="0"/>
	<anchor name="top" x="907" y="1492"/>
</glyph>
<glyph name="J" format="2">
	<unicode hex="004A"/>
	<advance width="895"/>
	<outline>
		<contour>
			<point x="-98.3377685547" y="-224.9995117188" type="qcurve"/>
			<point x="-53.5423583984" y="-59.0844116211" type="line"/>
			<point x="-26.7808837891" y="-69.0844116211"/>
			<point x="53.0103149414" y="-73.0844116211"/>
			<point x="93.51953125" y="-73.0844116211" type="qcurve" smooth="yes"/>
			<point x="189.9691162109" y="-73.0844116211"/>
			<point x="290.4819946289" y="8.7354736328"/>
			<point x="315.3018798828" y="159.9155883789" type="qcurve" smooth="yes"/>
			<point x="424.1397094727" y="754" type="line"/>
			<point x="542.819152832" y="1367.9970703125" type="line"/>
			<point x="334.0689086914" y="1389.9970703125" type="line"/>
			<point x="342.0068969727" y="1500" type="line"/>
			<point x="903.248840332" y="1500" type="line"/>
			<point x="898.3108520508" y="1388.9970703125" type="line"/>
			<point x="703.0690307617" y="1365.9970703125" type="line"/>
			<point x="589.0296020508" y="754" type="line"/>
			<point x="491.3963623047" y="217.0004882812" type="line" smooth="yes"/>
			<point x="446.1630249023" y="-31.9995117188"/>
			<point x="192.1817016602" y="-260.9995117188"/>
			<point x="37.1184082031" y="-260.9995117188" type="qcurve" smooth="yes"/>
			<point x="4.1026611328" y="-260.9995117188"/>
			<point x="-92.555847168" y="-235.9995117188"/>
		</contour>
	</outline>
	<anchor name="bottom" x="376" y="-208"/>
	<anchor name="top" x="533" y="1500"/>
	<anchor name="_liga" x="0" y="0"/>
</glyph>
<glyph name="M" format="2">
	<unicode hex="004D"/>
	<advance width="2088"/>
	<outline>
		<contour>
			<point x="-51.7427978516" y="0" type="line"/>
			<point x="-50.5649414062" y="101.0029296875" type="line"/>
			<point x="144.3500976562" y="136.0029296875" type="line"/>
			<point x="260.3895263672" y="745" type="line"/>
			<point x="379.0689697266" y="1365.9970703125" type="line"/>
			<point x="181.5887451172" y="1387.9970703125" type="line"/>
			<point x="188.1265869141" y="1500" type="line"/>
			<point x="541.6099853516" y="1500" type="line"/>
			<point x="769.705871582" y="588.338684082" type="line"/>
			<point x="917.3687744141" y="324.5062866211" type="line"/>
			<point x="941.1385498047" y="192.1345825195" type="line"/>
			<point x="954.1385498047" y="192.1345825195" type="line"/>
			<point x="1027.0322265625" y="324.5062866211" type="line"/>
			<point x="1329.8713378906" y="735.1595458984" type="line"/>
			<point x="1810.4274902344" y="1500" type="line"/>
			<point x="2122.6090698242" y="1500" type="line"/>
			<point x="2111.2450561523" y="1388.9970703125" type="line"/>
			<point x="1920.764831543" y="1365.9970703125" type="line"/>
			<point x="1803.0853881836" y="744" type="line"/>
			<point x="1685.0459594727" y="121.0029296875" type="line"/>
			<point x="1877.3088989258" y="101.0029296875" type="line"/>
			<point x="1872.1310424805" y="0" type="line"/>
			<point x="1367.3239135742" y="0" type="line"/>
			<point x="1373.5017700195" y="101.0029296875" type="line"/>
			<point x="1542.1560668945" y="126.0029296875" type="line"/>
			<point x="1654.1954956055" y="703.1770019531" type="line"/>
			<point x="1703.1954956055" y="953.1770019531" type="line"/>
			<point x="1728.567199707" y="1085" type="line"/>
			<point x="1716.567199707" y="1082" type="line"/>
			<point x="1657.1159667969" y="961.690246582" type="line"/>
			<point x="1346.3474121094" y="556.4432983398" type="line"/>
			<point x="913.5078735352" y="0" type="line"/>
			<point x="947.5667724609" y="0" type="line"/>
			<point x="649.1613769531" y="511.4788818359" type="line"/>
			<point x="495.719909668" y="1101.6282958984" type="line"/>
			<point x="474.702331543" y="1220" type="line"/>
			<point x="462.702331543" y="1217" type="line"/>
			<point x="447.702331543" y="1100" type="line"/>
			<point x="376.702331543" y="714" type="line"/>
			<point x="268.662902832" y="126.0029296875" type="line"/>
			<point x="459.8389282227" y="101.0029296875" type="line"/>
			<point x="440.8783569336" y="0" type="line"/>
		</contour>
	</outline>
	<anchor name="bottom" x="768" y="0"/>
	<anchor name="top" x="1048" y="1500"/>
</glyph>
<glyph name="O" format="2">
	<unicode hex="004F"/>
	<advance width="1557"/>
	<outline>
		<contour>
			<point x="104.3181728804" y="877" type="qcurve" smooth="yes"/>
			<point x="192.4331631148" y="1250"/>
			<point x="694.1028408491" y="1583.0900878906"/>
			<point x="974.3980068648" y="1520" type="qcurve" smooth="yes"/>
			<point x="1227.5642666304" y="1460.8928222656"/>
			<point x="1542.423885771" y="1029"/>
			<point x="1457.0169033491" y="654" type="qcurve" smooth="yes"/>
			<point x="1370.7869228804" y="278"/>
			<point x="863.8332489406" y="-92.9230436234"/>
			<point x="557.8423428023" y="-14" type="qcurve" smooth="yes"/>
			<point x="294.5279720901" y="58.1775109878"/>
			<point x="13.203182646" y="492"/>
		</contour>
		<contour>
			<point x="279.4779783536" y="795" type="qcurve" smooth="yes"/>
			<point x="200.3029905607" y="444.7298583984"/>
			<point x="402.2981077482" y="151.9565429688"/>
			<point x="608.9077268888" y="120.0462646484" type="qcurve" smooth="yes"/>
			<point x="850.3581053068" y="81.8489990234"/>
			<point x="1196.6223264982" y="436.4927978516"/>
			<point x="1267.5119139005" y="760" type="qcurve" smooth="yes"/>
			<point x="1334.9947630216" y="1066.5751953125"/>
			<point x="1096.4181028654" y="1336.1442260742"/>
			<point x="883.3413816739" y="1368.63671875" type="qcurve" smooth="yes"/>
			<point x="661.6331297208" y="1402.8915405273"/>
			<point x="347.0954099943" y="1102.9987792969"/>
		</contour>
	</outline>
	<anchor name="bottom" x="612" y="0"/>
	<anchor name="center" x="765" y="756"/>
	<anchor name="ogonek" x="844" y="0"/>
	<anchor name="top" x="906" y="1500"/>
	<anchor name="topright" x="1044" y="1500"/>
	<anchor name="tonos" x="230" y="1500"/>
	<anchor name="_yu_dash" x="174" y="795"/>
</glyph>
<glyph name="P" format="2">
	<unicode hex="0050"/>
	<advance width="1104"/>
	<outline>
		<contour>
			<point x="-50.0389404297" y="0" type="line"/>
			<point x="-44.8610839844" y="102.0029296875" type="line"/>
			<point x="139.6870117188" y="117.0029296875" type="line"/>
			<point x="277.0064697266" y="798" type="line"/>
			<point x="386.9659423828" y="1366.9970703125" type="line"/>
			<point x="180.7708740234" y="1383.9970703125" type="line"/>
			<point x="185.2652587891" y="1500" type="line"/>
			<point x="885.1544189453" y="1500" type="line" smooth="yes"/>
			<point x="965.4242553711" y="1500"/>
			<point x="1068.5939941406" y="1248.6887207031"/>
			<point x="1034.2926025391" y="1035.9365234375" type="qcurve" smooth="yes"/>
			<point x="1000.1713256836" y="820.5445556641"/>
			<point x="808.9622802734" y="600.873046875"/>
			<point x="666.2425537109" y="600.873046875" type="qcurve" smooth="yes"/>
			<point x="525.0726928711" y="600.873046875"/>
			<point x="355.2206420898" y="622.9959716797"/>
			<point x="314.1597900391" y="630.0531616211" type="qcurve"/>
			<point x="341.0733642578" y="719" type="line"/>
			<point x="403.4633178711" y="707"/>
			<point x="465.1651611328" y="697"/>
			<point x="572.3946533203" y="697" type="qcurve" smooth="yes"/>
			<point x="656.7846069336" y="697"/>
			<point x="800.8236694336" y="909.8990478516"/>
			<point x="827.8236694336" y="1071.8990478516" type="qcurve" smooth="yes"/>
			<point x="861.8236694336" y="1272.8990478516"/>
			<point x="838.7512817383" y="1374.8168334961"/>
			<point x="758.7924804688" y="1374.8168334961" type="qcurve" smooth="yes"/>
			<point x="564.5261230469" y="1374.8168334961" type="line"/>
			<point x="534.0591430664" y="1347.7300415039" type="line"/>
			<point x="419.0733642578" y="742" type="line"/>
			<point x="302.75390625" y="116.0029296875" type="line"/>
			<point x="523.6013183594" y="99.0029296875" type="line"/>
			<point x="506.4234619141" y="0" type="line"/>
		</contour>
	</outline>
	<anchor name="bottom" x="634" y="0"/>
	<anchor name="top" x="634" y="1500"/>
</glyph>
<glyph name="T" format="2">
	<unicode hex="0054"/>
	<advance width="1265"/>
	<outline>
		<contour>
			<point x="96.0291137695" y="1090.4420776367" type="line"/>
			<point x="170.9546508789" y="1500" type="line"/>
			<point x="1352.0932006836" y="1500" type="line"/>
			<point x="1257.1676635742" y="1090.4420776367" type="line"/>
			<point x="1158.1698608398" y="1090.4420776367" type="line"/>
			<point x="1184.9990234375" y="1373.4321289062" type="line"/>
			<point x="842.5133666992" y="1373.4321289062" type="line"/>
			<point x="820.5133666992" y="1353.4321289062" type="line"/>
			<point x="700.6070556641" y="754" type="line"/>
			<point x="585.5676269531" y="121.0029296875" type="line"/>
			<point x="805.787109375" y="100.0029296875" type="line"/>
			<point x="800.0875244141" y="0" type="line"/>
			<point x="183.2462158203" y="0" type="line"/>
			<point x="181.9458007812" y="100.0029296875" type="line"/>
			<point x="406.2087402344" y="118.0029296875" type="line"/>
			<point x="529.2481689453" y="754" type="line"/>
			<point x="646.1544799805" y="1353.4321289062" type="line"/>
			<point x="642.1544799805" y="1373.4321289062" type="line"/>
			<point x="263.8614501953" y="1373.4321289062" type="line"/>
			<point x="185.0269165039" y="1090.4420776367" type="line"/>
		</contour>
	</outline>
	<anchor name="bottom" x="451" y="0"/>
	<anchor name="center" x="584" y="750"/>
	<anchor name="top" x="732" y="1500"/>
	<anchor name="cy_descender" x="755" y="100"/>
</glyph>
<glyph name="V" format="2">
	<unicode hex="0056"/>
	<advance width="1230"/>
	<outline>
		<contour>
			<point x="79.0355224609" y="1381.4771728516" type="line"/>
			<point x="93.7595214844" y="1500" type="line"/>
			<point x="529.1385498047" y="1500" type="line"/>
			<point x="515.4945068359" y="1386.5169677734" type="line"/>
			<point x="350.5241699219" y="1349.9970703125" type="line"/>
			<point x="397.3902587891" y="700.8530883789" type="line"/>
			<point x="413.0051879883" y="251.4477539062" type="line"/>
			<point x="416.4512329102" y="132.0015869141" type="line"/>
			<point x="429.4512329102" y="132.0015869141" type="line"/>
			<point x="477.0963134766" y="249.3912963867" type="line"/>
			<point x="767.6501464844" y="886.2565917969" type="line"/>
			<point x="998.0538330078" y="1348.9970703125" type="line"/>
			<point x="816.9791259766" y="1385.1569824219" type="line"/>
			<point x="832.7969970703" y="1500" type="line"/>
			<point x="1341.1252441406" y="1500" type="line"/>
			<point x="1327.2274169922" y="1386.1171875" type="line"/>
			<point x="1114.0325927734" y="1348.9970703125" type="line"/>
			<point x="853.9826660156" y="800.6483154297" type="line"/>
			<point x="522.0375976562" y="0" type="line"/>
			<point x="313.6262207031" y="0" type="line"/>
			<point x="256.9816894531" y="728.5931396484" type="line"/>
			<point x="220.5831298828" y="1349.9970703125" type="line"/>
		</contour>
	</outline>
	<anchor name="bottom" x="373" y="0"/>
	<anchor name="top" x="743" y="1500"/>
</glyph>
<glyph name="W" format="2">
	<unicode hex="0057"/>
	<advance width="1977"/>
	<outline>
		<contour>
			<point x="55.9013671875" y="1387.9970703125" type="line"/>
			<point x="58.7001953125" y="1500" type="line"/>
			<point x="511.3801269531" y="1500" type="line"/>
			<point x="518.5812988281" y="1387.9970703125" type="line"/>
			<point x="388.44921875" y="1350.9970703125" type="line"/>
			<point x="379.9442749023" y="837.7434082031" type="line"/>
			<point x="374.7208862305" y="185.0647583008" type="line"/>
			<point x="363.0000610352" y="65.3388061523" type="line"/>
			<point x="372.0000610352" y="65.3388061523" type="line"/>
			<point x="439.1858520508" y="177.3034057617" type="line"/>
			<point x="743.8391723633" y="718.548828125" type="line"/>
			<point x="913.7151489258" y="900.9774780273" type="line"/>
			<point x="916.7790527344" y="1350.9970703125" type="line"/>
			<point x="791.9514160156" y="1383.9970703125" type="line"/>
			<point x="793.2719726562" y="1500" type="line"/>
			<point x="1255.4048461914" y="1500" type="line"/>
			<point x="1255.0408325195" y="1390.9970703125" type="line"/>
			<point x="1083.8218383789" y="1350.9970703125" type="line"/>
			<point x="1112.309387207" y="880.3943481445" type="line"/>
			<point x="1143.5491943359" y="182.9437255859" type="line"/>
			<point x="1143.5836791992" y="86.3388061523" type="line"/>
			<point x="1155.5836791992" y="86.3388061523" type="line"/>
			<point x="1203.7302856445" y="179.4364624023" type="line"/>
			<point x="1491.8270263672" y="787.2570800781" type="line"/>
			<point x="1751.4207763672" y="1340.9970703125" type="line"/>
			<point x="1566.1578369141" y="1388.9970703125" type="line"/>
			<point x="1579.6956787109" y="1500" type="line"/>
			<point x="2112.330078125" y="1500" type="line"/>
			<point x="2088.7922363281" y="1388.9970703125" type="line"/>
			<point x="1895.66015625" y="1345.9970703125" type="line"/>
			<point x="1575.870300293" y="685.4317016602" type="line"/>
			<point x="1210.8574829102" y="0" type="line"/>
			<point x="981.4447631836" y="0" type="line"/>
			<point x="914.8375244141" y="676.5209960938" type="line"/>
			<point x="914.9212036133" y="798.0048828125" type="line"/>
			<point x="902.9212036133" y="798.0048828125" type="line"/>
			<point x="845.900390625" y="678.4593505859" type="line"/>
			<point x="414.3314208984" y="0" type="line"/>
			<point x="250.8272094727" y="0" type="line"/>
			<point x="230.8246459961" y="776.6638793945" type="line"/>
			<point x="206.2944335938" y="1350.9970703125" type="line"/>
		</contour>
	</outline>
	<anchor name="bottom" x="691" y="0"/>
	<anchor name="top" x="981" y="1500"/>
</glyph>
<glyph name="X" format="2">
	<unicode hex="0058"/>
	<advance width="1216"/>
	<outline>
		<contour>
			<point x="-130.8792114258" y="0" type="line"/>
			<point x="-116.7013549805" y="98.0029296875" type="line"/>
			<point x="53.9524536133" y="127.0029296875" type="line"/>
			<point x="466.9105834961" y="718.6640625" type="line"/>
			<point x="217.1403808594" y="1360.9970703125" type="line"/>
			<point x="75.4431152344" y="1396.9970703125" type="line"/>
			<point x="73.9809570312" y="1500" type="line"/>
			<point x="518.2642211914" y="1500" type="line"/>
			<point x="519.7263793945" y="1396.9970703125" type="line"/>
			<point x="392.4639282227" y="1362.9970703125" type="line"/>
			<point x="546.6622924805" y="1067.6312866211" type="line"/>
			<point x="584.143371582" y="979.2088623047" type="line"/>
			<point x="596.143371582" y="979.2088623047" type="line"/>
			<point x="656.7139892578" y="1075.162902832" type="line"/>
			<point x="836.8082885742" y="1349.9970703125" type="line"/>
			<point x="682.7631225586" y="1396.9970703125" type="line"/>
			<point x="695.3009643555" y="1500" type="line"/>
			<point x="1216.9730834961" y="1500" type="line"/>
			<point x="1201.4352416992" y="1396.9970703125" type="line"/>
			<point x="1019.9987182617" y="1360.9970703125" type="line"/>
			<point x="621.4253540039" y="839.6954345703" type="line"/>
			<point x="916.0264892578" y="123.0029296875" type="line"/>
			<point x="1104.5499267578" y="93.0029296875" type="line"/>
			<point x="1120.3720703125" y="0" type="line"/>
			<point x="618.9257202148" y="0" type="line"/>
			<point x="613.1035766602" y="93.0029296875" type="line"/>
			<point x="757.8442993164" y="122.0029296875" type="line"/>
			<point x="555.8570556641" y="494.9962158203" type="line"/>
			<point x="511.3697509766" y="579.474609375" type="line"/>
			<point x="499.3697509766" y="579.474609375" type="line"/>
			<point x="438.315246582" y="477.6413574219" type="line"/>
			<point x="235.1428833008" y="133.0029296875" type="line"/>
			<point x="391.1880493164" y="98.0029296875" type="line"/>
			<point x="382.3199462891" y="0" type="line"/>
		</contour>
	</outline>
	<anchor name="bottom" x="453" y="0"/>
	<anchor name="top" x="723" y="1500"/>
	<anchor name="cy_descender" x="1125" y="100"/>
	<anchor name="center" x="591" y="791"/>
</glyph>
<glyph name="Z" format="2">
	<unicode hex="005A"/>
	<advance width="1083"/>
	<outline>
		<contour>
			<point x="-95.3227539062" y="0" type="line"/>
			<point x="-103.8818359375" y="107.4107055664" type="line"/>
			<point x="453.6150512695" y="835.5663452148" type="line"/>
			<point x="870.1746826172" y="1371.63671875" type="line"/>
			<point x="865.1746826172" y="1386.63671875" type="line"/>
			<point x="377.0378417969" y="1386.63671875" type="line"/>
			<point x="298.0822753906" y="1167.6748657227" type="line"/>
			<point x="205.4846191406" y="1167.6748657227" type="line"/>
			<point x="256.092956543" y="1500" type="line"/>
			<point x="1118.0975952148" y="1500" type="line"/>
			<point x="1102.3583984375" y="1372.508605957" type="line"/>
			<point x="540.1600341797" y="660.6107177734" type="line"/>
			<point x="121.0755615234" y="141.5621337891" type="line"/>
			<point x="126.0755615234" y="122.5621337891" type="line"/>
			<point x="726.4506225586" y="122.5621337891" type="line"/>
			<point x="842.0438232422" y="350.8190307617" type="line"/>
			<point x="957.6414794922" y="350.8190307617" type="line"/>
			<point x="840.5756225586" y="0" type="line"/>
		</contour>
	</outline>
	<anchor name="bottom" x="383" y="0"/>
	<anchor name="top" x="643" y="1500"/>
	<anchor name="_liga" x="0" y="0"/>
</glyph>
<glyph name="a" format="2">
	<unicode hex="0061"/>
	<advance width="910"/>
	<outline>
		<contour>
			<point x="-43.0443672512" y="309" type="qcurve" smooth="yes"/>
			<point x="-73.0196480129" y="569.4291992188"/>
			<point x="359.7289481785" y="1005.7630615234"/>
			<point x="502.0900321628" y="1005.7630615234" type="qcurve" smooth="yes"/>
			<point x="596.7257743503" y="1005.7630615234"/>
			<point x="712.2372489597" y="931.7630615234"/>
			<point x="742.9066825535" y="897.7630615234" type="qcurve"/>
			<point x="711.0701347019" y="1006.7630615234" type="line"/>
			<point x="804.2487235691" y="1006.7630615234" type="line"/>
			<point x="889.5957694675" y="799.7630615234" type="line"/>
			<point x="787.6198173191" y="415" type="line"/>
			<point x="750.1938529636" y="225" type="line"/>
			<point x="771.7806449558" y="176"/>
			<point x="812.2872977878" y="91"/>
			<point x="842.9782157566" y="46" type="qcurve"/>
			<point x="596.3946586277" y="-18" type="line"/>
			<point x="583.4068656589" y="26.628112793"/>
			<point x="572.005315366" y="166.4794311523"/>
			<point x="574.9742484714" y="239.2315063477" type="qcurve"/>
			<point x="447.2279105808" y="117.6068725586"/>
			<point x="232.6972098972" y="-10"/>
			<point x="165.9552665378" y="-10" type="qcurve" smooth="yes"/>
			<point x="49.9079032566" y="-10"/>
			<point x="-29.7881416653" y="148"/>
		</contour>
		<contour>
			<point x="143.0036063816" y="233.0035400391" type="qcurve" smooth="yes"/>
			<point x="152.5903983738" y="196.6229248047"/>
			<point x="215.7786918308" y="148.0848999023"/>
			<point x="277.9605765964" y="148.0848999023" type="qcurve" smooth="yes"/>
			<point x="404.9937797214" y="148.0848999023"/>
			<point x="589.7986503269" y="384"/>
			<point x="621.8644462253" y="531" type="qcurve" smooth="yes"/>
			<point x="699.3157401707" y="844.6781616211" type="line"/>
			<point x="690.7702689793" y="875.6781616211"/>
			<point x="612.5705009128" y="900.5518798828"/>
			<point x="567.5208793308" y="900.5518798828" type="qcurve" smooth="yes"/>
			<point x="370.8016410496" y="900.5518798828"/>
			<point x="112.3258720066" y="290.4291992188"/>
		</contour>
	</outline>
	<anchor name="bottom" x="345" y="0"/>
	<anchor name="ogonek" x="732" y="0"/>
	<anchor name="top" x="608" y="1000"/>
</glyph>
<glyph name="b" format="2">
	<unicode hex="0062"/>
	<advance width="946"/>
	<outline>
		<contour>
			<point x="74.7180175781" y="459" type="qcurve" smooth="yes"/>
			<point x="118.7180175781" y="644" type="line"/>
			<point x="308.4915771484" y="1452.9616699219" type="line"/>
			<point x="187.7386474609" y="1512.2048339844" type="line"/>
			<point x="212.69921875" y="1578.2077636719" type="line"/>
			<point x="386.5090942383" y="1646.9645996094" type="line"/>
			<point x="466.5090942383" y="1545.9645996094" type="line"/>
			<point x="252.7749633789" y="602" type="line"/>
			<point x="140.4165649414" y="120.1702880859" type="line" smooth="yes"/>
			<point x="127.4165649414" y="64.3023681641"/>
			<point x="164.6727905273" y="30.1702880859"/>
			<point x="204.9290161133" y="30.1702880859" type="qcurve" smooth="yes"/>
			<point x="428.1607055664" y="30.1702880859"/>
			<point x="720.5841674805" y="169.4350585938"/>
			<point x="785.1543579102" y="687.6046142578" type="qcurve" smooth="yes"/>
			<point x="780.8154907227" y="772.2836914062"/>
			<point x="711.2758178711" y="845.6798095703"/>
			<point x="625.755065918" y="845.6798095703" type="qcurve" smooth="yes"/>
			<point x="504.1846923828" y="845.6798095703"/>
			<point x="288.3540039062" y="715.4552001953"/>
			<point x="175.8081665039" y="620.3420410156" type="qcurve"/>
			<point x="126.9591674805" y="663.3612060547" type="line"/>
			<point x="244.5911254883" y="802.5592041016"/>
			<point x="562.3815307617" y="1026.0009765625"/>
			<point x="675.6079101562" y="1026.0009765625" type="qcurve" smooth="yes"/>
			<point x="780.2597045898" y="1026.0009765625"/>
			<point x="948.6029052734" y="825.0009765625"/>
			<point x="961.4872436523" y="674.0009765625" type="qcurve" smooth="yes"/>
			<point x="982.4212036133" y="358.0009765625"/>
			<point x="562.5278320312" y="-25"/>
			<point x="299.8234863281" y="-25" type="qcurve" smooth="yes"/>
			<point x="134.7374267578" y="-25"/>
			<point x="16.7180175781" y="216"/>
		</contour>
	</outline>
	<anchor name="bottom" x="571" y="0"/>
	<anchor name="top" x="571" y="1533"/>
</glyph>
<glyph name="c" format="2">
	<unicode hex="0063"/>
	<advance width="948"/>
	<outline>
		<contour>
			<point x="7.2172851562" y="506.0004882812" type="qcurve" smooth="yes"/>
			<point x="62.0268554688" y="760.0959472656"/>
			<point x="498.5682373047" y="1032.0009765625"/>
			<point x="622.8757324219" y="1032.0009765625" type="qcurve" smooth="yes"/>
			<point x="739.5056762695" y="1032.0009765625"/>
			<point x="901.9279174805" y="896.6612548828"/>
			<point x="901.9279174805" y="820.8875732422" type="qcurve" smooth="yes"/>
			<point x="901.9279174805" y="764.2082519531"/>
			<point x="853.9252319336" y="667.9439697266"/>
			<point x="801.4627685547" y="642.9439697266" type="qcurve"/>
			<point x="720.5305786133" y="642.9439697266" type="line"/>
			<point x="715.502746582" y="813.0384521484" type="line" smooth="yes"/>
			<point x="715.0687866211" y="864.0384521484"/>
			<point x="702.7256469727" y="905.0196533203"/>
			<point x="607.2678833008" y="905.0196533203" type="qcurve" smooth="yes"/>
			<point x="436.6136474609" y="905.0196533203"/>
			<point x="270.5059204102" y="778.0483398438"/>
			<point x="201.0625" y="508.5242919922" type="qcurve" smooth="yes"/>
			<point x="134.3005371094" y="255.1906738281"/>
			<point x="210.5712890625" y="105.5473632812"/>
			<point x="334.6888427734" y="105.5473632812" type="qcurve" smooth="yes"/>
			<point x="501.3360595703" y="105.5473632812"/>
			<point x="782.239074707" y="235.7547607422"/>
			<point x="844.9993286133" y="341.2265625" type="qcurve"/>
			<point x="905.7181396484" y="273" type="line"/>
			<point x="905.7181396484" y="203" type="line"/>
			<point x="823.1279907227" y="104.5093994141"/>
			<point x="562.6076049805" y="-33"/>
			<point x="338.8532104492" y="-33" type="qcurve" smooth="yes"/>
			<point x="175.9607543945" y="-33"/>
			<point x="-49.1160888672" y="245.3336181641"/>
		</contour>
	</outline>
	<anchor name="bottom" x="343" y="0"/>
	<anchor name="top" x="600" y="1000"/>
</glyph>
<glyph name="d" format="2">
	<unicode hex="0064"/>
	<advance width="912"/>
	<outline>
		<contour>
			<point x="-42.2026367188" y="268.5240478516" type="qcurve" smooth="yes"/>
			<point x="-26.2026367188" y="569.6196289062"/>
			<point x="353.6768188477" y="966.0776367188"/>
			<point x="640.436706543" y="987.0010986328" type="qcurve" smooth="yes"/>
			<point x="757.5193481445" y="987.0010986328" type="line"/>
			<point x="857.9446411133" y="1447.6381835938" type="line"/>
			<point x="713.8207397461" y="1509.9418945312" type="line"/>
			<point x="729.7813110352" y="1574.9448242188" type="line"/>
			<point x="969.5504760742" y="1648.6411132812" type="line"/>
			<point x="1042.5504760742" y="1547.6411132812" type="line"/>
			<point x="767.8163452148" y="469" type="line"/>
			<point x="697.3767700195" y="146.0029296875" type="line"/>
			<point x="843.3804321289" y="133.69921875" type="line"/>
			<point x="845.4198608398" y="44.6962890625" type="line"/>
			<point x="625.1058959961" y="-8" type="line"/>
			<point x="560.1058959961" y="104" type="line"/>
			<point x="541.1058959961" y="200" type="line"/>
			<point x="509.8446044922" y="128.0952148438"/>
			<point x="212.854309082" y="-10"/>
			<point x="174.9608154297" y="-10" type="qcurve" smooth="yes"/>
			<point x="46.6693115234" y="-10"/>
			<point x="-49.2026367188" y="133.9525146484"/>
		</contour>
		<contour>
			<point x="147.8634643555" y="291.271484375" type="qcurve" smooth="yes"/>
			<point x="130.8634643555" y="223.6221313477"/>
			<point x="189.4741210938" y="153.6402587891"/>
			<point x="246.4379272461" y="153.6402587891" type="qcurve" smooth="yes"/>
			<point x="373.204284668" y="153.6402587891"/>
			<point x="541.0752563477" y="298.479309082"/>
			<point x="596.455871582" y="511.3979492188" type="qcurve" smooth="yes"/>
			<point x="689.9310913086" y="849.7103271484" type="line"/>
			<point x="683.426940918" y="873.7103271484"/>
			<point x="649.4944458008" y="907.7103271484"/>
			<point x="608.1968994141" y="907.7103271484" type="qcurve" smooth="yes"/>
			<point x="423.2807617188" y="907.7103271484"/>
			<point x="245.8634643555" y="633.1420898438"/>
		</contour>
	</outline>
	<anchor name="bottom" x="604" y="0"/>
	<anchor name="center" x="876" y="1202"/>
	<anchor name="top" x="704" y="1534"/>
	<anchor name="topright" x="1076" y="1000"/>
	<anchor name="liga" x="1067" y="0"/>
</glyph>
<glyph name="e" format="2">
	<unicode hex="0065"/>
	<advance width="961"/>
	<outline>
		<contour>
			<point x="9.8035888672" y="501.6196289062" type="qcurve" smooth="yes"/>
			<point x="64.6607666016" y="753.8579101562"/>
			<point x="465.8407592773" y="1028.9057617188"/>
			<point x="569.2633666992" y="1028.9057617188" type="qcurve" smooth="yes"/>
			<point x="781.2581176758" y="1028.9057617188"/>
			<point x="959.3366699219" y="824.6322021484"/>
			<point x="930.3137817383" y="700.503112793" type="qcurve" smooth="yes"/>
			<point x="903.1777954102" y="669.7009887695"/>
			<point x="892.9201660156" y="626.7168579102"/>
			<point x="886.7000732422" y="616.6196289062" type="qcurve"/>
			<point x="908.1762695312" y="594.6196289062" type="line"/>
			<point x="880.4613037109" y="505.42578125" type="line"/>
			<point x="950.3854370117" y="503.42578125"/>
			<point x="737.9777832031" y="493.6247558594"/>
			<point x="774.1383666992" y="494.42578125" type="qcurve" smooth="yes"/>
			<point x="218.8577270508" y="491.42578125" type="line"/>
			<point x="219.096496582" y="586.4293212891" type="line"/>
			<point x="626.5091552734" y="590.6196289062" type="line"/>
			<point x="635.5562744141" y="614.8411865234"/>
			<point x="658.0955200195" y="715.1408081055"/>
			<point x="658.5501098633" y="773.7274780273" type="qcurve" smooth="yes"/>
			<point x="662.6110839844" y="873.5259399414"/>
			<point x="621.5699462891" y="929.440246582"/>
			<point x="599.2080078125" y="929.440246582" type="qcurve" smooth="yes"/>
			<point x="474.7017211914" y="929.440246582"/>
			<point x="275.2692260742" y="766.9517211914"/>
			<point x="212.7615356445" y="515.6196289062" type="qcurve" smooth="yes"/>
			<point x="159.4127197266" y="300.3041992188"/>
			<point x="281.3604736328" y="51.5180664062"/>
			<point x="354.8355712891" y="60.4188232422" type="qcurve" smooth="yes"/>
			<point x="563.3124389648" y="58.6137084961"/>
			<point x="772.1603393555" y="209.3430786133"/>
			<point x="823.900390625" y="324.3454589844" type="qcurve"/>
			<point x="864.7125854492" y="268" type="line"/>
			<point x="855.125793457" y="202" type="line"/>
			<point x="790.106262207" y="95.9388427734"/>
			<point x="524.1716308594" y="-26.5219116211"/>
			<point x="332.0544433594" y="-35" type="qcurve" smooth="yes"/>
			<point x="274.3341064453" y="-54.7330322266"/>
			<point x="-44.3869628906" y="252.1906738281"/>
		</contour>
	</outline>
	<anchor name="bottom" x="339" y="0"/>
	<anchor name="ogonek" x="495" y="0"/>
	<anchor name="top" x="601" y="1000"/>
</glyph>
<glyph name="f" format="2">
	<unicode hex="0066"/>
	<advance width="497"/>
	<outline>
		<contour>
			<point x="-370.4098510742" y="-435.7836914062" type="line" smooth="yes"/>
			<point x="-358.96484375" y="-393.5148925781" type="line"/>
			<point x="-241.6368408203" y="-393.5148925781" type="line" smooth="yes"/>
			<point x="-106.6368408203" y="-395.4055786133"/>
			<point x="-24.3368530273" y="-236.8952636719"/>
			<point x="35.776550293" y="39.720703125" type="qcurve" smooth="yes"/>
			<point x="210.3709106445" y="817.0009765625" type="line"/>
			<point x="215.3709106445" y="854.0009765625" type="line"/>
			<point x="278.9053344727" y="1214.4357910156" type="line" smooth="yes"/>
			<point x="316.3815307617" y="1443.9595947266"/>
			<point x="485.7737426758" y="1622.4357910156"/>
			<point x="565.8208007812" y="1622.4357910156" type="qcurve" smooth="yes"/>
			<point x="656.5819091797" y="1622.4357910156"/>
			<point x="772.9436645508" y="1528.6883544922"/>
			<point x="772.9436645508" y="1454.2904052734" type="qcurve" smooth="yes"/>
			<point x="772.9436645508" y="1398.9080200195"/>
			<point x="728.026550293" y="1334.3508911133"/>
			<point x="715.405090332" y="1334.3508911133" type="qcurve" smooth="yes"/>
			<point x="670.1170043945" y="1334.3508911133"/>
			<point x="628.405090332" y="1359.3508911133"/>
			<point x="608.405090332" y="1395.3508911133" type="qcurve" smooth="yes"/>
			<point x="588.405090332" y="1432.3508911133"/>
			<point x="550.7908935547" y="1496.3993530273"/>
			<point x="534.0549316406" y="1496.3993530273" type="qcurve" smooth="yes"/>
			<point x="492.6356201172" y="1496.3993530273"/>
			<point x="465.2348632812" y="1436.6207885742"/>
			<point x="448.7616577148" y="1343.3508911133" type="qcurve" smooth="yes"/>
			<point x="371.3783569336" y="850.0009765625" type="line"/>
			<point x="378.3783569336" y="827.0009765625" type="line"/>
			<point x="204.6638793945" y="67" type="line" smooth="yes"/>
			<point x="138.6372070312" y="-222.296081543"/>
			<point x="45.3544921875" y="-494.7836914062"/>
			<point x="-73.0818481445" y="-494.7836914062" type="qcurve"/>
		</contour>
		<contour>
			<point x="29.6733398438" y="820.8364868164" type="line"/>
			<point x="51.3238525391" y="910.0009765625" type="line"/>
			<point x="262.3709106445" y="952.0009765625" type="line"/>
			<point x="619.0429077148" y="954.0009765625" type="line"/>
			<point x="582.2487792969" y="846.8364868164" type="line"/>
			<point x="306.7640991211" y="831.8364868164" type="line"/>
			<point x="291.9729614258" y="803.8364868164" type="line"/>
		</contour>
	</outline>
	<anchor name="bottom" x="217" y="0"/>
	<anchor name="top" x="554" y="1536"/>
</glyph>
<glyph name="g" format="2">
	<unicode hex="0067"/>
	<advance width="888"/>
	<outline>
		<contour>
			<point x="-33.2028808594" y="302" type="qcurve" smooth="yes"/>
			<point x="-73.9715576172" y="569.0006103516"/>
			<point x="363.0997924805" y="1003.1440429688"/>
			<point x="533.2077026367" y="1003.1440429688" type="qcurve" smooth="yes"/>
			<point x="647.587890625" y="1003.1440429688"/>
			<point x="658.0942382812" y="929.1440429688"/>
			<point x="686.8876342773" y="894.1440429688" type="qcurve"/>
			<point x="619.4678955078" y="993.1440429688" type="line"/>
			<point x="805.4678955078" y="993.1440429688" type="line"/>
			<point x="911.3109130859" y="798.1440429688" type="line"/>
			<point x="805.7392578125" y="444" type="line" smooth="yes"/>
			<point x="763.6916503906" y="294"/>
			<point x="744.4403076172" y="199.4772949219"/>
			<point x="715.431640625" y="87.4619140625" type="qcurve" smooth="yes"/>
			<point x="619.1998901367" y="-270.1223144531"/>
			<point x="228.3225708008" y="-503.0451660156"/>
			<point x="131.4615478516" y="-493.0451660156" type="qcurve"/>
			<point x="-78.9158325195" y="-437.0451660156" type="line"/>
			<point x="-61.4755249023" y="-389.9091186523" type="line"/>
			<point x="63.3771972656" y="-389.9091186523" type="line" smooth="yes"/>
			<point x="279.7766723633" y="-384.9993896484"/>
			<point x="457.5611572266" y="-196.1149902344"/>
			<point x="505.7661132812" y="-12.5380859375" type="qcurve" smooth="yes"/>
			<point x="567.5365600586" y="215.35546875" type="line"/>
			<point x="467.1626586914" y="132.9256591797"/>
			<point x="203.4287109375" y="-11"/>
			<point x="162.3515014648" y="-11" type="qcurve" smooth="yes"/>
			<point x="72.5771484375" y="-11"/>
			<point x="-19.029296875" y="146"/>
		</contour>
		<contour>
			<point x="137.9127197266" y="280" type="qcurve" smooth="yes"/>
			<point x="151.3342285156" y="248"/>
			<point x="193.9300537109" y="188.2405395508"/>
			<point x="247.4425048828" y="188.2405395508" type="qcurve" smooth="yes"/>
			<point x="367.6823120117" y="188.2405395508"/>
			<point x="574.9379882812" y="388"/>
			<point x="613.979309082" y="531" type="qcurve" smooth="yes"/>
			<point x="708.3277587891" y="852.3930664062" type="line"/>
			<point x="706.9627075195" y="878.3104248047"/>
			<point x="627.6485595703" y="899.3930664062"/>
			<point x="584.6402587891" y="899.3930664062" type="qcurve" smooth="yes"/>
			<point x="413.9516601562" y="899.3930664062"/>
			<point x="96.6895141602" y="329.2386474609"/>
		</contour>
	</outline>
	<anchor name="bottom" x="324" y="-416"/>
	<anchor name="top" x="603" y="1000"/>
</glyph>
<glyph name="h" format="2">
	<unicode hex="0068"/>
	<advance width="1034"/>
	<outline>
		<contour>
			<point x="38.7868652344" y="-16" type="line"/>
			<point x="2.7868652344" y="101" type="line"/>
			<point x="135.7868652344" y="584" type="line"/>
			<point x="347.3986816406" y="1457.9912109375" type="line"/>
			<point x="153.0383300781" y="1511.4462890625" type="line"/>
			<point x="177.9989013672" y="1579.44921875" type="line"/>
			<point x="430.4748535156" y="1646.994140625" type="line"/>
			<point x="515.296875" y="1540.994140625" type="line"/>
			<point x="331.9024658203" y="720" type="line"/>
			<point x="207.9024658203" y="223" type="line"/>
			<point x="217.9024658203" y="30" type="line"/>
		</contour>
		<contour>
			<point x="728.8874511719" y="-8" type="line"/>
			<point x="654.8874511719" y="187" type="line"/>
			<point x="801.0208740234" y="698.3182983398" type="line" smooth="yes"/>
			<point x="818.8005981445" y="772.8475341797"/>
			<point x="795.4435424805" y="860.3588867188"/>
			<point x="713.4407348633" y="860.3588867188" type="qcurve" smooth="yes"/>
			<point x="622.1168823242" y="860.3588867188"/>
			<point x="387.5197143555" y="723.0074462891"/>
			<point x="272.2998657227" y="563.3588867188" type="qcurve"/>
			<point x="231.5628662109" y="606.0009765625" type="line"/>
			<point x="372.0616455078" y="826.5816650391"/>
			<point x="678.1199951172" y="1021.0009765625"/>
			<point x="799.858215332" y="1021.0009765625" type="qcurve" smooth="yes"/>
			<point x="890.6950073242" y="1021.0009765625"/>
			<point x="1022.7850341797" y="827.4072875977"/>
			<point x="980.3178100586" y="691.9789428711" type="qcurve" smooth="yes"/>
			<point x="828.7518920898" y="148.0029296875" type="line"/>
			<point x="972.8690795898" y="132.94140625" type="line"/>
			<point x="975.9085083008" y="43.9384765625" type="line"/>
		</contour>
	</outline>
	<anchor name="bottom" x="420" y="0"/>
	<anchor name="center" x="347" y="1202"/>
	<anchor name="top" x="424" y="1534"/>
</glyph>
<glyph name="k" format="2">
	<unicode hex="006B"/>
	<advance width="647"/>
	<outline>
		<contour>
			<point x="275.6391601562" y="441.9639282227" type="line"/>
			<point x="63.1121826172" y="202.973815918" type="line"/>
			<point x="17.5477905273" y="263.1445922852" type="line"/>
			<point x="633.3264160156" y="819.2728881836" type="line"/>
			<point x="638.7182617188" y="793.6362915039"/>
			<point x="571.8815307617" y="812.5086669922"/>
			<point x="519.7163085938" y="812.5086669922" type="qcurve" smooth="yes"/>
			<point x="464.8418579102" y="812.5086669922"/>
			<point x="299.9616088867" y="673.6804199219"/>
			<point x="250.2228393555" y="621.6617431641" type="qcurve"/>
			<point x="223.5083618164" y="548.6607666016" type="line"/>
			<point x="158.0014648438" y="249" type="line"/>
			<point x="168.0014648438" y="32" type="line"/>
			<point x="11.7868652344" y="-17" type="line"/>
			<point x="-26.2131347656" y="101" type="line"/>
			<point x="107.7868652344" y="585" type="line"/>
			<point x="317.6717529297" y="1455.6381835938" type="line"/>
			<point x="123.6145019531" y="1511.9116210938" type="line"/>
			<point x="148.5750732422" y="1582.9145507812" type="line"/>
			<point x="378.5738525391" y="1648.6411132812" type="line"/>
			<point x="464.5738525391" y="1541.6411132812" type="line"/>
			<point x="261.1740722656" y="708.2709960938" type="line"/>
			<point x="283.4711914062" y="802.9428100586"/>
			<point x="449.9053344727" y="1031.0009765625"/>
			<point x="546.2514648438" y="1031.0009765625" type="qcurve" smooth="yes"/>
			<point x="591.1334838867" y="1031.0009765625"/>
			<point x="642.4776611328" y="887.8233032227"/>
			<point x="630.1588134766" y="847.279296875" type="qcurve" smooth="yes"/>
			<point x="626.908996582" y="790.7902832031" type="line"/>
			<point x="595.178894043" y="760.2349243164" type="line"/>
			<point x="343.6227416992" y="489.5257568359" type="line"/>
		</contour>
		<contour>
			<point x="332.5181274414" y="555.9588012695" type="line"/>
			<point x="541.8963012695" y="149.1335449219" type="line"/>
			<point x="653.8311157227" y="130.0114746094" type="line"/>
			<point x="643.8311157227" y="42.0085449219" type="line"/>
			<point x="539.6767578125" y="-8.1467285156" type="line" smooth="yes"/>
			<point x="513.4727783203" y="-12.7400512695"/>
			<point x="485.0244750977" y="0.5323486328"/>
			<point x="442.8992919922" y="41.4761962891" type="qcurve" smooth="yes"/>
			<point x="308.5990600586" y="449.3331298828" type="line"/>
		</contour>
	</outline>
	<anchor name="bottom" x="448" y="0"/>
	<anchor name="top" x="578" y="1534"/>
</glyph>
<glyph name="m" format="2">
	<unicode hex="006D"/>
	<advance width="1530"/>
	<outline>
		<contour>
			<point x="37.9956054688" y="-18" type="line"/>
			<point x="-0.0043945312" y="101" type="line"/>
			<point x="125.0432128906" y="552.5238037109" type="line"/>
			<point x="190.3095703125" y="832.998046875" type="line"/>
			<point x="48.3901367188" y="831.302734375" type="line"/>
			<point x="57.3507080078" y="952.3056640625" type="line"/>
			<point x="98.5057983398" y="1012.0009765625" type="line"/>
			<point x="270.5057983398" y="1012.0009765625" type="line"/>
			<point x="279.5525512695" y="657.7219238281" type="line"/>
			<point x="306.8389282227" y="660.5238037109" type="line"/>
			<point x="179.7913208008" y="234" type="line"/>
			<point x="202.7913208008" y="31" type="line"/>
		</contour>
		<contour>
			<point x="678.0221557617" y="-11" type="line"/>
			<point x="612.0221557617" y="185" type="line"/>
			<point x="760.6241455078" y="743.9938964844" type="line" smooth="yes"/>
			<point x="770.9801025391" y="779.1387329102"/>
			<point x="716.5396728516" y="843.9938964844"/>
			<point x="636.2349853516" y="843.9938964844" type="qcurve" smooth="yes"/>
			<point x="540.1761474609" y="843.9938964844"/>
			<point x="337.0373535156" y="693.8671875"/>
			<point x="246.6948852539" y="576.5567016602" type="qcurve"/>
			<point x="257.9246826172" y="673.8387451172" type="line"/>
			<point x="220.0682983398" y="689.155090332"/>
			<point x="500.5601196289" y="1021.0009765625"/>
			<point x="649.4840087891" y="1021.0009765625" type="qcurve" smooth="yes"/>
			<point x="787.3092651367" y="1021.0009765625"/>
			<point x="933.1622924805" y="730.3385009766"/>
			<point x="857.0053100586" y="512.0009765625" type="qcurve" smooth="yes"/>
			<point x="764.2908325195" y="210" type="line"/>
			<point x="803.2908325195" y="37" type="line"/>
		</contour>
		<contour>
			<point x="1265.233581543" y="-4" type="line"/>
			<point x="1188.233581543" y="194" type="line"/>
			<point x="1342.8355712891" y="743.9938964844" type="line" smooth="yes"/>
			<point x="1354.1915283203" y="780.1387329102"/>
			<point x="1291.662109375" y="839.9938964844"/>
			<point x="1212.357421875" y="839.9938964844" type="qcurve" smooth="yes"/>
			<point x="1122.0316162109" y="839.9938964844"/>
			<point x="936.0029296875" y="709.1341552734"/>
			<point x="835.5637817383" y="576.3990478516" type="qcurve"/>
			<point x="834.7395019531" y="680.5775146484" type="line"/>
			<point x="815.7661132812" y="705.9985961914"/>
			<point x="1099.6387939453" y="1021.0009765625"/>
			<point x="1198.9973144531" y="1021.0009765625" type="qcurve" smooth="yes"/>
			<point x="1335.7888183594" y="1021.0009765625"/>
			<point x="1506.5796508789" y="748.6137084961"/>
			<point x="1453.8473510742" y="586.0009765625" type="qcurve" smooth="yes"/>
			<point x="1325.3734741211" y="148.0029296875" type="line"/>
			<point x="1467.2106323242" y="133.0927734375" type="line"/>
			<point x="1470.2500610352" y="44.08984375" type="line"/>
		</contour>
	</outline>
	<anchor name="bottom" x="958" y="0"/>
	<anchor name="top" x="958" y="1000"/>
	<anchor name="cy_descender" x="1572" y="134"/>
</glyph>
<glyph name="n" format="2">
	<unicode hex="006E"/>
	<advance width="1015"/>
	<outline>
		<contour>
			<point x="54.3734741211" y="-51.0671386719" type="line"/>
			<point x="-5.1754760742" y="16.3920898438" type="line"/>
			<point x="123.9956054688" y="552" type="line"/>
			<point x="194.4850463867" y="854.8990478516" type="line"/>
			<point x="53.1256713867" y="853.2037353516" type="line"/>
			<point x="61.5624389648" y="974.2066650391" type="line"/>
			<point x="283.8219604492" y="1000.8908691406" type="line"/>
			<point x="283.1409912109" y="1000.8908691406" type="line"/>
			<point x="307.6246337891" y="701.6612548828" type="line"/>
			<point x="337.4265136719" y="687" type="line"/>
			<point x="190.6743164062" y="138.3920898438" type="line"/>
			<point x="206.533996582" y="3.3563232422" type="line"/>
		</contour>
		<contour>
			<point x="737.2382202148" y="-9" type="line"/>
			<point x="653.7828369141" y="161.7296142578" type="line"/>
			<point x="798.4703979492" y="718.6333007812" type="line" smooth="yes"/>
			<point x="813.6077270508" y="777.0326538086"/>
			<point x="780.8439331055" y="871.3829345703"/>
			<point x="695.7463989258" y="871.3829345703" type="qcurve" smooth="yes"/>
			<point x="603.5985717773" y="871.3829345703"/>
			<point x="351.4624633789" y="643.7315673828"/>
			<point x="289.9002685547" y="560.8827514648" type="qcurve"/>
			<point x="248.6923828125" y="603.9829101562" type="line"/>
			<point x="337.2354125977" y="790.8294067383"/>
			<point x="666.3579101562" y="1021.0009765625"/>
			<point x="784.0903930664" y="1021.0009765625" type="qcurve" smooth="yes"/>
			<point x="880.6698608398" y="1021.0009765625"/>
			<point x="1005.1002197266" y="855.9756469727"/>
			<point x="968.2810668945" y="737.6232910156" type="qcurve" smooth="yes"/>
			<point x="819.3814697266" y="148.0029296875" type="line"/>
			<point x="958.4986572266" y="132.94140625" type="line"/>
			<point x="961.5380859375" y="43.9384765625" type="line"/>
		</contour>
	</outline>
	<anchor name="bottom" x="522" y="0"/>
	<anchor name="top" x="602" y="1000"/>
	<anchor name="liga" x="1173" y="0"/>
</glyph>
<glyph name="o" format="2">
	<unicode hex="006F"/>
	<advance width="952"/>
	<outline>
		<contour>
			<point x="16.2443611823" y="561.5345458984" type="qcurve" smooth="yes"/>
			<point x="69.1899178229" y="749.5349731445"/>
			<point x="356.7763232591" y="1020.8368530273"/>
			<point x="584.7209847174" y="1015.8667602539" type="qcurve" smooth="yes"/>
			<point x="786.4803637864" y="1012.7250976562"/>
			<point x="1010.3401049974" y="720.5299682617"/>
			<point x="933.7447680833" y="457.7360229492" type="qcurve" smooth="yes"/>
			<point x="877.6415576341" y="264.1737060547"/>
			<point x="594.5221118333" y="-23.4270629883"/>
			<point x="352.1638558112" y="-17.5765380859" type="qcurve" smooth="yes"/>
			<point x="180.1457690599" y="-20.091003418"/>
			<point x="-56.666283349" y="284.9211425781"/>
		</contour>
		<contour>
			<point x="178.9604866705" y="519.7356567383" type="qcurve" smooth="yes"/>
			<point x="135.0773612965" y="335.4786867689"/>
			<point x="221.8908455573" y="71.6198730469"/>
			<point x="355.6443855963" y="69.4754638672" type="qcurve" smooth="yes"/>
			<point x="497.2222875023" y="72.5334174496"/>
			<point x="713.8595923834" y="290.1315010496"/>
			<point x="754.7432015143" y="475.0480957031" type="qcurve" smooth="yes"/>
			<point x="798.8313753847" y="665.0532948407"/>
			<point x="680.7486913458" y="888.1712558883"/>
			<point x="548.3807137213" y="898.1787109375" type="qcurve" smooth="yes"/>
			<point x="407.1578133307" y="910.0495605469"/>
			<point x="219.882500737" y="699.2178186653"/>
		</contour>
	</outline>
	<anchor name="bottom" x="358" y="0"/>
	<anchor name="center" x="461" y="500"/>
	<anchor name="ogonek" x="514" y="0"/>
	<anchor name="top" x="584" y="1000"/>
	<anchor name="topright" x="663" y="1000"/>
	<anchor name="GRKtop" x="584" y="1000"/>
	<anchor name="yu_dash" x="83" y="498"/>
</glyph>
<glyph name="p" format="2">
	<unicode hex="0070"/>
	<advance width="896"/>
	<outline>
		<contour>
			<point x="-108.9572753906" y="-393.0144042969" type="line"/>
			<point x="134.8579101562" y="548" type="line"/>
			<point x="177.0961914062" y="769.5723876953" type="line"/>
			<point x="123.0961914062" y="929.5723876953" type="line"/>
			<point x="52.5225219727" y="1013.5723876953" type="line"/>
			<point x="239.5225219727" y="1013.5723876953" type="line"/>
			<point x="278.2072143555" y="759.5723876953" type="line"/>
			<point x="320.623840332" y="866.0948486328"/>
			<point x="548.0735473633" y="1025.5723876953"/>
			<point x="618.022644043" y="1025.5723876953" type="qcurve" smooth="yes"/>
			<point x="761.4105224609" y="1025.5723876953"/>
			<point x="915.4041137695" y="869.3612670898"/>
			<point x="918.6190185547" y="707.5444946289" type="qcurve" smooth="yes"/>
			<point x="941.676940918" y="399.7622070312"/>
			<point x="495.2838134766" y="10"/>
			<point x="308.3880615234" y="10" type="qcurve" smooth="yes"/>
			<point x="251.7430419922" y="10"/>
			<point x="198.8710327148" y="24"/>
			<point x="166.2842407227" y="29" type="qcurve"/>
			<point x="62.8511352539" y="-392.0114746094" type="line"/>
			<point x="205.9985961914" y="-421.2243652344" type="line"/>
			<point x="183.6165161133" y="-488.2272949219" type="line"/>
			<point x="39.0427246094" y="-518.0144042969" type="line"/>
		</contour>
		<contour>
			<point x="201.5484008789" y="236.8868408203" type="line"/>
			<point x="188.5106811523" y="173.8680419922"/>
			<point x="227.0229492188" y="115.6228027344"/>
			<point x="279.8659667969" y="115.6228027344" type="qcurve" smooth="yes"/>
			<point x="481.0589599609" y="115.6228027344"/>
			<point x="642.3265991211" y="247.6345214844"/>
			<point x="720.3513183594" y="760.2760009766" type="qcurve" smooth="yes"/>
			<point x="719.9711303711" y="794.8952636719"/>
			<point x="689.1013183594" y="832.5531005859"/>
			<point x="608.3767700195" y="832.5531005859" type="qcurve" smooth="yes"/>
			<point x="524.5667724609" y="832.5531005859"/>
			<point x="391.1320800781" y="739.8551025391"/>
			<point x="316.7677612305" y="671.40234375" type="qcurve"/>
			<point x="262.5484008789" y="462.1887207031" type="line"/>
		</contour>
	</outline>
	<anchor name="bottom" x="599" y="0"/>
	<anchor name="top" x="599" y="1000"/>
</glyph>
<glyph name="q" format="2">
	<unicode hex="0071"/>
	<advance width="897"/>
	<outline>
		<contour>
			<point x="-47.2030029297" y="288" type="qcurve" smooth="yes"/>
			<point x="-29.2030029297" y="568.1910400391"/>
			<point x="354.6380306976" y="978.1440429688"/>
			<point x="509.7416683929" y="978.1440429688" type="qcurve" smooth="yes"/>
			<point x="589.0309139984" y="978.1440429688"/>
			<point x="695.3614804046" y="902.1440429688"/>
			<point x="709.485442807" y="868.1440429688" type="qcurve"/>
			<point x="667.8334042328" y="993.1440429688" type="line"/>
			<point x="815.8334042328" y="993.1440429688" type="line"/>
			<point x="824.8334042328" y="694.1440429688" type="line"/>
			<point x="775.7855526703" y="562" type="line"/>
			<point x="564.9280087249" y="-392.0114746094" type="line"/>
			<point x="711.9553524749" y="-417.2243652344" type="line"/>
			<point x="683.9332577484" y="-484.2272949219" type="line"/>
			<point x="505.6610409515" y="-514.0144042969" type="line"/>
			<point x="407.6610409515" y="-393.0144042969" type="line"/>
			<point x="530.6607968109" y="159" type="line"/>
			<point x="505.6607968109" y="166" type="line"/>
			<point x="413.1160580414" y="80"/>
			<point x="219.6157836914" y="-8"/>
			<point x="178.9517822266" y="-8" type="qcurve" smooth="yes"/>
			<point x="100.4412841797" y="-8"/>
			<point x="-55.2030029297" y="148"/>
		</contour>
		<contour>
			<point x="122.7008666992" y="315" type="qcurve" smooth="yes"/>
			<point x="105.7008666992" y="251"/>
			<point x="150.208099057" y="198.4619750977"/>
			<point x="223.5139462249" y="198.4619750977" type="qcurve" smooth="yes"/>
			<point x="333.1256405609" y="198.4619750977"/>
			<point x="539.7281796234" y="356"/>
			<point x="581.9761044281" y="522" type="qcurve" smooth="yes"/>
			<point x="671.8007504242" y="819.3930664062" type="line"/>
			<point x="663.7662655609" y="851.7581176758"/>
			<point x="631.3364559906" y="896.3930664062"/>
			<point x="574.9975888031" y="896.3930664062" type="qcurve" smooth="yes"/>
			<point x="385.7025448578" y="896.3930664062"/>
			<point x="218.7008666992" y="616.1910400391"/>
		</contour>
	</outline>
	<anchor name="bottom" x="594" y="0"/>
	<anchor name="top" x="594" y="1000"/>
</glyph>
<glyph name="r" format="2">
	<unicode hex="0072"/>
	<advance width="715"/>
	<outline>
		<contour>
			<point x="100.6469726562" y="-28" type="line"/>
			<point x="22.6469726562" y="192" type="line"/>
			<point x="128.6469726562" y="551" type="line"/>
			<point x="186.5249023438" y="835.5218505859" type="line"/>
			<point x="34.0141601562" y="831.6751708984" type="line"/>
			<point x="50.3745117188" y="952.6781005859" type="line"/>
			<point x="93.0008544922" y="1011.5247802734" type="line"/>
			<point x="228.0008544922" y="1011.5247802734" type="line"/>
			<point x="291.0008544922" y="974.5247802734" type="line"/>
			<point x="324.0008544922" y="630.5247802734" type="line"/>
			<point x="195.7231445312" y="146.0029296875" type="line"/>
			<point x="400.0489501953" y="136.45703125" type="line"/>
			<point x="410.7283935547" y="47.4541015625" type="line"/>
		</contour>
		<contour>
			<point x="548.8817138672" y="611.1077270508" type="line"/>
			<point x="548.8817138672" y="826.1077270508" type="line"/>
			<point x="481.3734130859" y="827.1077270508"/>
			<point x="346.3018798828" y="718.1077270508"/>
			<point x="282.3018798828" y="602.1077270508" type="qcurve"/>
			<point x="225.0008544922" y="648.5247802734" type="line"/>
			<point x="309.0008544922" y="789.5247802734"/>
			<point x="510.1909790039" y="1026.5247802734"/>
			<point x="582.6693725586" y="1026.5247802734" type="qcurve" smooth="yes"/>
			<point x="651.6851196289" y="1026.5247802734"/>
			<point x="753.9532470703" y="897.5247802734"/>
			<point x="753.9532470703" y="803.5247802734" type="qcurve" smooth="yes"/>
			<point x="753.9532470703" y="655.5247802734"/>
			<point x="719.8817138672" y="611.1077270508"/>
			<point x="630.8817138672" y="611.1077270508" type="qcurve" smooth="yes"/>
		</contour>
	</outline>
	<anchor name="bottom" x="282" y="0"/>
	<anchor name="top" x="486" y="1000"/>
</glyph>
<glyph name="s" format="2">
	<unicode hex="0073"/>
	<advance width="810"/>
	<outline>
		<contour>
			<point x="-25.9207763672" y="223" type="qcurve" smooth="yes"/>
			<point x="-24.9207763672" y="313"/>
			<point x="55.6174316406" y="398"/>
			<point x="119.5338745117" y="398" type="qcurve" smooth="yes"/>
			<point x="160.5338745117" y="398" type="line"/>
			<point x="158.5338745117" y="197.9248046875" type="line" smooth="yes"/>
			<point x="157.5338745117" y="149.3587646484"/>
			<point x="172.799621582" y="85.7171630859"/>
			<point x="302.4172363281" y="85.7171630859" type="qcurve" smooth="yes"/>
			<point x="390.1979370117" y="85.7171630859"/>
			<point x="550.9053344727" y="190.7202148438"/>
			<point x="555.9053344727" y="264.2269897461" type="qcurve" smooth="yes"/>
			<point x="560.9053344727" y="338.3036499023"/>
			<point x="472.6295776367" y="358.8932495117"/>
			<point x="332.6331787109" y="439.9799804688" type="qcurve" smooth="yes"/>
			<point x="203.9157104492" y="501.3921508789"/>
			<point x="78.0838623047" y="644.6162109375"/>
			<point x="84.9262084961" y="787.42578125" type="qcurve" smooth="yes"/>
			<point x="93.7685546875" y="863.7150878906"/>
			<point x="382.0061645508" y="1042.0009765625"/>
			<point x="494.7466430664" y="1042.0009765625" type="qcurve" smooth="yes"/>
			<point x="577.2893066406" y="1042.0009765625"/>
			<point x="770.8427734375" y="914.0009765625"/>
			<point x="769.8427734375" y="813.0009765625" type="qcurve" smooth="yes"/>
			<point x="768.8427734375" y="736.4771728516"/>
			<point x="690.6401977539" y="662.0009765625"/>
			<point x="690.8161621094" y="663.0009765625" type="qcurve" smooth="yes"/>
			<point x="593.8161621094" y="665.0009765625" type="line"/>
			<point x="595.8161621094" y="785.6989746094" type="line" smooth="yes"/>
			<point x="596.8161621094" y="811.8424072266"/>
			<point x="530.7780761719" y="909.4158935547"/>
			<point x="465.7379150391" y="909.4158935547" type="qcurve" smooth="yes"/>
			<point x="354.7571411133" y="909.4158935547"/>
			<point x="266.2764282227" y="846.0772705078"/>
			<point x="265.2764282227" y="787.0549316406" type="qcurve" smooth="yes"/>
			<point x="264.2764282227" y="723.3073120117"/>
			<point x="359.5981445312" y="647.0114746094"/>
			<point x="471.821105957" y="592.258972168" type="qcurve" smooth="yes"/>
			<point x="600.4086914062" y="524.4722290039"/>
			<point x="771.3682861328" y="402.7766723633"/>
			<point x="766.3682861328" y="269.5861206055" type="qcurve"/>
			<point x="761.9639892578" y="122.6196899414"/>
			<point x="426.2093505859" y="-31"/>
			<point x="273.9531860352" y="-31" type="qcurve" smooth="yes"/>
			<point x="153.3836669922" y="-31"/>
			<point x="-27.9207763672" y="109"/>
		</contour>
	</outline>
	<anchor name="bottom" x="282" y="0"/>
	<anchor name="top" x="446" y="1000"/>
</glyph>
<glyph name="t" format="2">
	<unicode hex="0074"/>
	<advance width="528"/>
	<outline>
		<contour>
			<point x="139.5006103516" y="-35" type="line"/>
			<point x="10.5006103516" y="119" type="line"/>
			<point x="111.5006103516" y="538" type="line"/>
			<point x="165.9176025391" y="828.4721679688" type="line"/>
			<point x="32.9176025391" y="840.4721679688" type="line"/>
			<point x="34.6912841797" y="906.0009765625" type="line"/>
			<point x="236.5977783203" y="939.5560302734"/>
			<point x="363.943359375" y="1215.158996582"/>
			<point x="309.3659057617" y="1277.0009765625" type="qcurve"/>
			<point x="309.8426513672" y="1277.0009765625" type="line"/>
			<point x="368.8426513672" y="1189.0009765625" type="line"/>
			<point x="240.9822998047" y="510" type="line"/>
			<point x="153.7724609375" y="145.0029296875" type="line"/>
			<point x="339.8060302734" y="135.6982421875" type="line"/>
			<point x="329.0860595703" y="42.2553710938" type="line"/>
		</contour>
		<contour>
			<point x="580.3515625" y="847.4721679688" type="line"/>
			<point x="621.6912841797" y="952.0009765625" type="line"/>
			<point x="548.1262207031" y="952.0009765625" type="line"/>
			<point x="521.7864990234" y="868.4721679688" type="line"/>
		</contour>
	</outline>
	<anchor name="bottom" x="149" y="0"/>
	<anchor name="center" x="262" y="622"/>
	<anchor name="top" x="322" y="1179"/>
	<anchor name="topright" x="600" y="920"/>
</glyph>
<glyph name="u" format="2">
	<unicode hex="0075"/>
	<advance width="981"/>
	<outline>
		<contour>
			<point x="786.3175048828" y="-21" type="line"/>
			<point x="699.3175048828" y="73" type="line"/>
			<point x="665.4487304688" y="312.7662353516" type="line"/>
			<point x="783.5557861328" y="816.5247802734" type="line"/>
			<point x="756.5557861328" y="979.5247802734" type="line"/>
			<point x="946.1938476562" y="1020.5247802734" type="line"/>
			<point x="990.1938476562" y="906.5247802734" type="line"/>
			<point x="813.9555664062" y="288" type="line"/>
			<point x="845.6759033203" y="131.0029296875" type="line"/>
			<point x="927.7930908203" y="134.001953125" type="line"/>
			<point x="925.0727539062" y="44.9990234375" type="line"/>
		</contour>
		<contour>
			<point x="42.2169189453" y="313" type="qcurve" smooth="yes"/>
			<point x="155.2145996094" y="832.5218505859" type="line"/>
			<point x="13.9157714844" y="836.8265380859" type="line"/>
			<point x="20.1563720703" y="950.8294677734" type="line"/>
			<point x="76.5708007812" y="1012.5247802734" type="line"/>
			<point x="247.5708007812" y="1012.5247802734" type="line"/>
			<point x="326.5708007812" y="816.5247802734" type="line"/>
			<point x="211.0118408203" y="329.3588867188" type="line" smooth="yes"/>
			<point x="188.5778808594" y="235.3588867188"/>
			<point x="235.8056640625" y="161.4908447266"/>
			<point x="317.6020507812" y="161.4908447266" type="qcurve" smooth="yes"/>
			<point x="430.3049316406" y="161.4908447266"/>
			<point x="683.7951660156" y="320.9222412109"/>
			<point x="744.6594238281" y="302.1303710938" type="qcurve"/>
			<point x="764.3435668945" y="268.8112792969" type="line"/>
			<point x="719.6728515625" y="202.3018798828"/>
			<point x="346.9452514648" y="-29"/>
			<point x="244.1924438477" y="-29" type="qcurve" smooth="yes"/>
			<point x="205.2835083008" y="-29"/>
			<point x="9.3745727539" y="160"/>
		</contour>
	</outline>
	<anchor name="bottom" x="404" y="0"/>
	<anchor name="ogonek" x="871" y="20"/>
	<anchor name="top" x="572" y="1000"/>
	<anchor name="topright" x="915" y="1000"/>
	<anchor name="cy_descender" x="1018" y="134"/>
</glyph>
<glyph name="v" format="2">
	<unicode hex="0076"/>
	<advance width="831"/>
	<outline>
		<contour>
			<point x="241.2286376953" y="-23" type="line"/>
			<point x="163.1558837891" y="513.0463256836" type="line"/>
			<point x="111.2366943359" y="844.5218505859" type="line"/>
			<point x="-20.9901123047" y="840.9476318359" type="line"/>
			<point x="-19.7900390625" y="954.9505615234" type="line"/>
			<point x="172.154296875" y="1009.5247802734" type="line"/>
			<point x="287.5643310547" y="1009.5247802734" type="line"/>
			<point x="353.6866455078" y="510.9234619141" type="line"/>
			<point x="369.5874633789" y="285.2021484375" type="line"/>
			<point x="368.7946777344" y="189.3147583008" type="line"/>
			<point x="380.7946777344" y="189.3147583008" type="line"/>
			<point x="454.4929199219" y="281.0805053711" type="line"/>
			<point x="645.6309204102" y="511.0126953125"/>
			<point x="717.245300293" y="648.6231689453"/>
			<point x="720.245300293" y="715.7502441406" type="qcurve" smooth="yes"/>
			<point x="722.245300293" y="811.3359375"/>
			<point x="636.1935424805" y="875.8628540039"/>
			<point x="638.1935424805" y="926.1195068359" type="qcurve" smooth="yes"/>
			<point x="639.1935424805" y="952.4180297852"/>
			<point x="703.1842651367" y="1022.5382080078"/>
			<point x="747.6141967773" y="1022.5382080078" type="qcurve" smooth="yes"/>
			<point x="780.0672607422" y="1022.5382080078"/>
			<point x="872.9923095703" y="925.8338623047"/>
			<point x="868.9923095703" y="795.6127929688" type="qcurve" smooth="yes"/>
			<point x="864.9923095703" y="680.2780761719"/>
			<point x="504.2462158203" y="192.1346435547"/>
			<point x="328.0161132812" y="-8" type="qcurve"/>
		</contour>
	</outline>
	<anchor name="bottom" x="513" y="0"/>
	<anchor name="top" x="513" y="1000"/>
</glyph>
<glyph name="w" format="2">
	<unicode hex="0077"/>
	<advance width="1180"/>
	<outline>
		<contour>
			<point x="233.0271606445" y="-26" type="line"/>
			<point x="151.0883178711" y="516.9909667969" type="line"/>
			<point x="102.2386474609" y="843.5218505859" type="line"/>
			<point x="-16.6578369141" y="842.0384521484" type="line"/>
			<point x="-27.697265625" y="954.0413818359" type="line"/>
			<point x="17.1151123047" y="1012.5247802734" type="line"/>
			<point x="258.1151123047" y="1012.5247802734" type="line"/>
			<point x="316.2083740234" y="553.3299560547" type="line"/>
			<point x="339.6871337891" y="329.2832641602" type="line"/>
			<point x="342.1472167969" y="213.1436157227" type="line"/>
			<point x="354.1472167969" y="213.1436157227" type="line"/>
			<point x="407.6716308594" y="307.7601318359" type="line"/>
			<point x="445.3565673828" y="353.7866821289"/>
			<point x="475.3021240234" y="384.4642333984"/>
			<point x="517.0887451172" y="435.7958374023" type="qcurve"/>
			<point x="455.0521240234" y="844.2065429688" type="line"/>
			<point x="441.319519043" y="842.7086791992" type="line"/>
			<point x="409.7292480469" y="960.0590820312" type="line"/>
			<point x="396.2011108398" y="1012.5247802734" type="line"/>
			<point x="587.3587646484" y="1012.5247802734" type="line"/>
			<point x="670.0783081055" y="533.0317993164" type="line"/>
			<point x="699.5635375977" y="327.6976318359" type="line"/>
			<point x="712.219909668" y="204.630065918" type="line"/>
			<point x="724.219909668" y="204.630065918" type="line"/>
			<point x="803.3441162109" y="313.8643188477" type="line"/>
			<point x="970.9116210938" y="519.7713012695"/>
			<point x="1065.792175293" y="645.1197509766"/>
			<point x="1051.905456543" y="728.9380493164" type="qcurve" smooth="yes"/>
			<point x="1040.1885375977" y="801.3556518555"/>
			<point x="907.7587280273" y="875.3959350586"/>
			<point x="906.0740356445" y="934.9573974609" type="qcurve" smooth="yes"/>
			<point x="904.3893432617" y="982.5834350586"/>
			<point x="964.0694580078" y="1038.5247802734"/>
			<point x="1009.9026489258" y="1038.5247802734" type="qcurve" smooth="yes"/>
			<point x="1068.8710327148" y="967.5298461914"/>
			<point x="1206.7810668945" y="898.8400878906"/>
			<point x="1202.7810668945" y="784.1553955078" type="qcurve" smooth="yes"/>
			<point x="1198.7810668945" y="644.9977416992"/>
			<point x="860.2090454102" y="329.7116088867"/>
			<point x="653.2319335938" y="-14" type="qcurve"/>
			<point x="591.9556274414" y="-26" type="line"/>
			<point x="543.7947998047" y="282.5620117188" type="line"/>
			<point x="539.2659301758" y="382.1369628906" type="line"/>
			<point x="527.2659301758" y="382.1369628906" type="line"/>
			<point x="465.9844970703" y="276.2331542969" type="line"/>
			<point x="428.9155883789" y="225.7515869141"/>
			<point x="360.5212402344" y="133.4815673828"/>
			<point x="257.452331543" y="-14" type="qcurve"/>
		</contour>
	</outline>
	<anchor name="bottom" x="787" y="0"/>
	<anchor name="top" x="717" y="1000"/>
</glyph>
<glyph name="x" format="2">
	<unicode hex="0078"/>
	<advance width="732"/>
	<outline>
		<contour>
			<point x="86.7033691406" y="-15" type="qcurve"/>
			<point x="-126.0378417969" y="64.060546875" type="line"/>
			<point x="-86.0378417969" y="206.060546875" type="line"/>
			<point x="53.7033691406" y="204" type="line" smooth="yes"/>
			<point x="122.9415283203" y="202.1576538086"/>
			<point x="257.8245849609" y="239.9250488281"/>
			<point x="320.7061767578" y="278.1431884766" type="qcurve" smooth="yes"/>
			<point x="335.0023193359" y="265.0665283203"/>
			<point x="366.2315673828" y="274.0987548828"/>
			<point x="377.7467041016" y="259.7266845703" type="qcurve"/>
			<point x="169.6317138672" y="869.9504394531" type="line"/>
			<point x="82.1678466797" y="865.173828125" type="line"/>
			<point x="37.0484619141" y="950.1369628906" type="line"/>
			<point x="113.6547851562" y="1039.9533691406" type="line"/>
			<point x="287.6547851562" y="999.9533691406" type="line"/>
			<point x="339.6081542969" y="827.7587890625" type="line"/>
			<point x="359.0029296875" y="751.6739501953" type="line"/>
			<point x="371.0029296875" y="751.6739501953" type="line"/>
			<point x="427.7136230469" y="807.9130859375" type="line" smooth="yes"/>
			<point x="445.4592285156" y="825.9940185547"/>
			<point x="495.8170166016" y="883.6309814453"/>
			<point x="515.4776611328" y="893.6560058594" type="qcurve" smooth="yes"/>
			<point x="565.248046875" y="933.7172851562"/>
			<point x="658.3380126953" y="1030.9533691406"/>
			<point x="696.5333251953" y="1030.9533691406" type="qcurve" smooth="yes"/>
			<point x="739.7307128906" y="1030.9533691406"/>
			<point x="790.8718261719" y="952.5434570312"/>
			<point x="789.8718261719" y="875.5434570312" type="qcurve" smooth="yes"/>
			<point x="788.8718261719" y="800.5434570312"/>
			<point x="684.2817382812" y="655.9533691406"/>
			<point x="626.2817382812" y="643.9533691406" type="qcurve"/>
			<point x="593.2817382812" y="666.9533691406" type="line"/>
			<point x="593.2817382812" y="739.7731933594" type="line" smooth="yes"/>
			<point x="593.2817382812" y="766.7731933594"/>
			<point x="576.1240844727" y="789.9533691406"/>
			<point x="547.4245605469" y="789.9533691406" type="qcurve" smooth="yes"/>
			<point x="507.0333251953" y="789.9533691406"/>
			<point x="423.7591552734" y="762.9224853516"/>
			<point x="403.6870117188" y="760.5350341797" type="qcurve" smooth="yes"/>
			<point x="385.1862792969" y="759.4229736328"/>
			<point x="339.9468994141" y="731.0472412109"/>
			<point x="329.9678955078" y="738.1131591797" type="qcurve"/>
			<point x="534.7955322266" y="133.0029296875" type="line"/>
			<point x="639.4841308594" y="130.1533203125" type="line"/>
			<point x="667.5235595703" y="52.150390625" type="line"/>
			<point x="563.4924316406" y="-27" type="line"/>
			<point x="410.4924316406" y="40" type="line"/>
			<point x="356.4030761719" y="202.6806640625" type="line"/>
			<point x="342.1241455078" y="262.6516113281" type="line"/>
			<point x="330.1241455078" y="262.6516113281" type="line"/>
			<point x="276.9343261719" y="208.5499267578" type="line"/>
			<point x="268.3594970703" y="206.6976318359"/>
			<point x="203.1872558594" y="123.3297119141"/>
			<point x="166.5546875" y="92.0313720703" type="qcurve" smooth="yes"/>
			<point x="145.1160888672" y="88.0372314453"/>
			<point x="84.0720214844" y="-11.9622802734"/>
		</contour>
	</outline>
	<anchor name="bottom" x="522" y="0"/>
	<anchor name="top" x="522" y="1000"/>
	<anchor name="cy_descender" x="832" y="134"/>
	<anchor name="center" x="432" y="502"/>
</glyph>
<glyph name="y" format="2">
	<unicode hex="0079"/>
	<advance width="877"/>
	<outline>
		<contour>
			<point x="-385.8336181641" y="-432.7377929688" type="line"/>
			<point x="-361.8336181641" y="-301.7377929688" type="line"/>
			<point x="-145.1397705078" y="-301.7377929688" type="line" smooth="yes"/>
			<point x="37.8153076172" y="-301.7377929688"/>
			<point x="218.56640625" y="-191.3040161133"/>
			<point x="312.3352050781" y="-62" type="qcurve" smooth="yes"/>
			<point x="372.1009521484" y="14" type="line"/>
			<point x="261.5926513672" y="14" type="line"/>
			<point x="261.8584594727" y="79"/>
			<point x="164.1732788086" y="675.5218505859"/>
			<point x="138.2768554688" y="852.5218505859" type="qcurve"/>
			<point x="6.0098876953" y="839.9476318359" type="line"/>
			<point x="8.2099609375" y="953.9505615234" type="line"/>
			<point x="203.6273193359" y="1012.5247802734" type="line"/>
			<point x="261.8969726562" y="1012.5247802734" type="line"/>
			<point x="334.1447753906" y="877.5247802734" type="line"/>
			<point x="392.8021240234" y="229.4844970703" type="line"/>
			<point x="393.1624755859" y="118.6196289062" type="line"/>
			<point x="405.1624755859" y="118.6196289062" type="line"/>
			<point x="482.7706298828" y="227.8898925781" type="line" smooth="yes"/>
			<point x="613.2977905273" y="419.9440917969"/>
			<point x="759.7739868164" y="673.4576416016"/>
			<point x="733.604309082" y="783.6080322266" type="qcurve" smooth="yes"/>
			<point x="717.4157104492" y="862.90234375"/>
			<point x="678.7314453125" y="914.2286987305"/>
			<point x="678.7314453125" y="939.6879272461" type="qcurve" smooth="yes"/>
			<point x="678.7314453125" y="983.9986572266"/>
			<point x="733.9880981445" y="1030.6201171875"/>
			<point x="775.7672119141" y="1030.6201171875" type="qcurve" smooth="yes"/>
			<point x="830.2355957031" y="1030.6201171875"/>
			<point x="894.5732421875" y="910.6246948242"/>
			<point x="894.5732421875" y="844.9042358398" type="qcurve" smooth="yes"/>
			<point x="894.5732421875" y="686.962890625"/>
			<point x="447.3123168945" y="91.3552246094"/>
			<point x="418.1463012695" y="10" type="qcurve" smooth="yes"/>
			<point x="388.0156860352" y="-32" type="line" smooth="yes"/>
			<point x="265.4321899414" y="-204.7094726562"/>
			<point x="103.8469238281" y="-490.7377929688"/>
			<point x="-126.1397705078" y="-490.7377929688" type="qcurve"/>
		</contour>
	</outline>
	<anchor name="bottom" x="782" y="0"/>
	<anchor name="top" x="504" y="1000"/>
</glyph>
<glyph name="z" format="2">
	<unicode hex="007A"/>
	<advance width="685"/>
	<outline>
		<contour>
			<point x="-93.8148803711" y="-8.3774414062" type="line"/>
			<point x="-112.0043945312" y="106" type="line"/>
			<point x="26.6539916992" y="228.1905517578"/>
			<point x="174.0808105469" y="374.1431884766"/>
			<point x="286.5408935547" y="500.1072998047" type="qcurve" smooth="yes"/>
			<point x="363.6259765625" y="586.8522949219"/>
			<point x="519.6586914062" y="735.2864990234"/>
			<point x="572.9166870117" y="793.0009765625" type="qcurve"/>
			<point x="170.6336669922" y="799.0009765625" type="line"/>
			<point x="99.2344970703" y="673.0046386719" type="line"/>
			<point x="2.6393432617" y="673.0046386719" type="line"/>
			<point x="68.0385131836" y="951.0009765625" type="line"/>
			<point x="138.0385131836" y="1002.0009765625" type="line"/>
			<point x="700.9024047852" y="1002.0009765625" type="line"/>
			<point x="763.6382446289" y="836.0009765625" type="line"/>
			<point x="686.8656616211" y="741.2864990234"/>
			<point x="545.2183837891" y="613.3392333984"/>
			<point x="455.8284912109" y="506.3337402344" type="qcurve" smooth="yes"/>
			<point x="375.8633422852" y="409.6193847656"/>
			<point x="298.2260742188" y="311.8095703125"/>
			<point x="232.3062133789" y="247" type="qcurve"/>
			<point x="550.0173950195" y="232.8426513672" type="line"/>
			<point x="630.6162719727" y="337.8392333984" type="line"/>
			<point x="721.2114257812" y="323.0752563477" type="line"/>
			<point x="616.6125488281" y="35.0786743164" type="line"/>
			<point x="543.6125488281" y="-8.9213256836" type="line"/>
			<point x="-31.6549682617" y="40.6604003906" type="line"/>
		</contour>
	</outline>
	<anchor name="bottom" x="443" y="0"/>
	<anchor name="top" x="463" y="1000"/>
	<anchor name="_liga" x="0" y="0"/>
</glyph>
<glyph name="idotless" format="2">
	<unicode hex="0131"/>
	<advance width="379"/>
	<outline>
		<contour>
			<point x="40.6824951172" y="-17" type="line"/>
			<point x="-9.3175048828" y="118" type="line"/>
			<point x="108.4920654297" y="480.8098144531" type="line"/>
			<point x="192.9602050781" y="830.9504394531" type="line"/>
			<point x="51.0828857422" y="829.1643066406" type="line"/>
			<point x="58.6834716797" y="954.1672363281" type="line"/>
			<point x="153.4552612305" y="1018.9533691406" type="line"/>
			<point x="333.4552612305" y="1004.9533691406" type="line"/>
			<point x="363.4552612305" y="890.9533691406" type="line"/>
			<point x="307.4552612305" y="688.9533691406" type="line"/>
			<point x="259.026550293" y="505.8098144531" type="line"/>
			<point x="171.8975219727" y="148.0029296875" type="line"/>
			<point x="313.2279663086" y="134.7890625" type="line"/>
			<point x="317.907409668" y="44.7861328125" type="line"/>
		</contour>
	</outline>
	<anchor name="bottom" x="180" y="0"/>
	<anchor name="top" x="320" y="1000"/>
	<anchor name="ogonek" x="180" y="0"/>
	<anchor name="yu_dash" x="239" y="498"/>
	<anchor name="liga" x="618" y="0"/>
</glyph>
